G04 #@! TF.FileFunction,Copper,L1,Top,Signal*
%FSLAX46Y46*%
G04 Gerber Fmt 4.6, Leading zero omitted, Abs format (unit mm)*
G04 Created by KiCad (PCBNEW (2015-07-07 BZR 5906)-product) date Thu 10 Sep 2015 10:57:11 CEST*
%MOMM*%
G01*
G04 APERTURE LIST*
%ADD10C,0.100000*%
%ADD11C,0.002540*%
%ADD12R,1.900000X1.900000*%
%ADD13C,1.900000*%
%ADD14R,2.000000X1.900000*%
%ADD15R,3.500000X4.000000*%
%ADD16R,4.000000X3.500000*%
%ADD17C,1.998980*%
%ADD18R,1.900000X2.500000*%
%ADD19O,1.900000X2.500000*%
%ADD20C,1.990000*%
%ADD21O,1.900000X1.900000*%
%ADD22C,1.016000*%
%ADD23C,0.254000*%
G04 APERTURE END LIST*
D10*
D11*
G36*
X102379780Y-107360720D02*
X102430580Y-107332780D01*
X102549960Y-107259120D01*
X102715060Y-107149900D01*
X102913180Y-107017820D01*
X103111300Y-106885740D01*
X103273860Y-106776520D01*
X103388160Y-106702860D01*
X103436420Y-106674920D01*
X103461820Y-106685080D01*
X103555800Y-106730800D01*
X103692960Y-106801920D01*
X103771700Y-106842560D01*
X103896160Y-106895900D01*
X103959660Y-106908600D01*
X103969820Y-106890820D01*
X104015540Y-106794300D01*
X104086660Y-106631740D01*
X104180640Y-106413300D01*
X104289860Y-106159300D01*
X104404160Y-105887520D01*
X104521000Y-105608120D01*
X104632760Y-105341420D01*
X104729280Y-105102660D01*
X104808020Y-104907080D01*
X104858820Y-104772460D01*
X104879140Y-104714040D01*
X104874060Y-104701340D01*
X104810560Y-104640380D01*
X104701340Y-104559100D01*
X104465120Y-104366060D01*
X104231440Y-104073960D01*
X104089200Y-103743760D01*
X104040940Y-103375460D01*
X104081580Y-103035100D01*
X104216200Y-102707440D01*
X104444800Y-102412800D01*
X104721660Y-102191820D01*
X105046780Y-102054660D01*
X105410000Y-102008940D01*
X105757980Y-102049580D01*
X106093260Y-102181660D01*
X106387900Y-102405180D01*
X106512360Y-102549960D01*
X106685080Y-102847140D01*
X106781600Y-103167180D01*
X106791760Y-103248460D01*
X106779060Y-103598980D01*
X106674920Y-103936800D01*
X106489500Y-104239060D01*
X106230420Y-104485440D01*
X106199940Y-104508300D01*
X106080560Y-104597200D01*
X105999280Y-104658160D01*
X105938320Y-104708960D01*
X106385360Y-105785920D01*
X106456480Y-105956100D01*
X106578400Y-106250740D01*
X106687620Y-106504740D01*
X106771440Y-106705400D01*
X106832400Y-106840020D01*
X106857800Y-106895900D01*
X106860340Y-106898440D01*
X106900980Y-106906060D01*
X106982260Y-106875580D01*
X107132120Y-106801920D01*
X107231180Y-106751120D01*
X107345480Y-106695240D01*
X107398820Y-106674920D01*
X107442000Y-106700320D01*
X107551220Y-106771440D01*
X107711240Y-106878120D01*
X107904280Y-107007660D01*
X108087160Y-107132120D01*
X108254800Y-107243880D01*
X108379260Y-107322620D01*
X108437680Y-107355640D01*
X108447840Y-107355640D01*
X108501180Y-107325160D01*
X108597700Y-107243880D01*
X108745020Y-107106720D01*
X108950760Y-106900980D01*
X108983780Y-106870500D01*
X109153960Y-106695240D01*
X109291120Y-106550460D01*
X109385100Y-106446320D01*
X109418120Y-106400600D01*
X109418120Y-106400600D01*
X109387640Y-106342180D01*
X109311440Y-106220260D01*
X109199680Y-106047540D01*
X109062520Y-105849420D01*
X108706920Y-105331260D01*
X108902500Y-104841040D01*
X108960920Y-104691180D01*
X109037120Y-104510840D01*
X109095540Y-104381300D01*
X109123480Y-104325420D01*
X109176820Y-104305100D01*
X109311440Y-104274620D01*
X109504480Y-104233980D01*
X109735620Y-104190800D01*
X109956600Y-104150160D01*
X110154720Y-104112060D01*
X110299500Y-104084120D01*
X110363000Y-104071420D01*
X110378240Y-104061260D01*
X110393480Y-104030780D01*
X110401100Y-103962200D01*
X110406180Y-103842820D01*
X110408720Y-103652320D01*
X110408720Y-103375460D01*
X110408720Y-103344980D01*
X110406180Y-103083360D01*
X110401100Y-102872540D01*
X110393480Y-102735380D01*
X110385860Y-102682040D01*
X110383320Y-102682040D01*
X110322360Y-102666800D01*
X110182660Y-102636320D01*
X109982000Y-102598220D01*
X109745780Y-102552500D01*
X109730540Y-102549960D01*
X109494320Y-102504240D01*
X109296200Y-102463600D01*
X109156500Y-102430580D01*
X109098080Y-102412800D01*
X109085380Y-102395020D01*
X109039660Y-102303580D01*
X108971080Y-102156260D01*
X108892340Y-101978460D01*
X108816140Y-101793040D01*
X108747560Y-101625400D01*
X108704380Y-101500940D01*
X108689140Y-101445060D01*
X108691680Y-101442520D01*
X108727240Y-101386640D01*
X108808520Y-101264720D01*
X108922820Y-101094540D01*
X109059980Y-100891340D01*
X109070140Y-100876100D01*
X109207300Y-100677980D01*
X109316520Y-100507800D01*
X109390180Y-100388420D01*
X109418120Y-100332540D01*
X109418120Y-100330000D01*
X109372400Y-100269040D01*
X109270800Y-100157280D01*
X109126020Y-100004880D01*
X108950760Y-99827080D01*
X108894880Y-99773740D01*
X108699300Y-99583240D01*
X108564680Y-99458780D01*
X108480860Y-99392740D01*
X108440220Y-99377500D01*
X108440220Y-99380040D01*
X108379260Y-99415600D01*
X108252260Y-99496880D01*
X108082080Y-99613720D01*
X107878880Y-99750880D01*
X107863640Y-99761040D01*
X107665520Y-99898200D01*
X107497880Y-100009960D01*
X107381040Y-100088700D01*
X107327700Y-100119180D01*
X107320080Y-100119180D01*
X107238800Y-100096320D01*
X107096560Y-100045520D01*
X106921300Y-99976940D01*
X106735880Y-99903280D01*
X106568240Y-99832160D01*
X106441240Y-99776280D01*
X106382820Y-99740720D01*
X106380280Y-99738180D01*
X106359960Y-99667060D01*
X106324400Y-99517200D01*
X106283760Y-99311460D01*
X106235500Y-99067620D01*
X106227880Y-99026980D01*
X106184700Y-98788220D01*
X106146600Y-98592640D01*
X106118660Y-98455480D01*
X106103420Y-98399600D01*
X106070400Y-98391980D01*
X105953560Y-98384360D01*
X105775760Y-98379280D01*
X105559860Y-98376740D01*
X105333800Y-98379280D01*
X105112820Y-98384360D01*
X104924860Y-98389440D01*
X104790240Y-98399600D01*
X104734360Y-98409760D01*
X104731820Y-98414840D01*
X104711500Y-98488500D01*
X104678480Y-98638360D01*
X104635300Y-98844100D01*
X104589580Y-99090480D01*
X104579420Y-99133660D01*
X104536240Y-99369880D01*
X104495600Y-99565460D01*
X104467660Y-99700080D01*
X104452420Y-99753420D01*
X104429560Y-99763580D01*
X104333040Y-99806760D01*
X104173020Y-99872800D01*
X103974900Y-99951540D01*
X103517700Y-100136960D01*
X102956360Y-99753420D01*
X102905560Y-99717860D01*
X102702360Y-99580700D01*
X102537260Y-99471480D01*
X102422960Y-99395280D01*
X102374700Y-99369880D01*
X102369620Y-99369880D01*
X102313740Y-99420680D01*
X102204520Y-99524820D01*
X102052120Y-99672140D01*
X101874320Y-99847400D01*
X101744780Y-99979480D01*
X101589840Y-100136960D01*
X101490780Y-100241100D01*
X101437440Y-100309680D01*
X101419660Y-100350320D01*
X101424740Y-100378260D01*
X101460300Y-100436680D01*
X101541580Y-100558600D01*
X101658420Y-100728780D01*
X101795580Y-100926900D01*
X101907340Y-101094540D01*
X102029260Y-101282500D01*
X102108000Y-101417120D01*
X102135940Y-101483160D01*
X102128320Y-101508560D01*
X102090220Y-101620320D01*
X102021640Y-101785420D01*
X101937820Y-101983540D01*
X101742240Y-102428040D01*
X101452680Y-102483920D01*
X101274880Y-102516940D01*
X101028500Y-102565200D01*
X100792280Y-102610920D01*
X100423980Y-102682040D01*
X100411280Y-104035860D01*
X100467160Y-104061260D01*
X100523040Y-104076500D01*
X100660200Y-104106980D01*
X100853240Y-104145080D01*
X101084380Y-104188260D01*
X101279960Y-104223820D01*
X101478080Y-104261920D01*
X101620320Y-104289860D01*
X101681280Y-104302560D01*
X101699060Y-104325420D01*
X101747320Y-104419400D01*
X101818440Y-104571800D01*
X101897180Y-104754680D01*
X101975920Y-104945180D01*
X102044500Y-105120440D01*
X102092760Y-105252520D01*
X102113080Y-105321100D01*
X102085140Y-105374440D01*
X102011480Y-105491280D01*
X101902260Y-105656380D01*
X101767640Y-105851960D01*
X101633020Y-106047540D01*
X101518720Y-106215180D01*
X101439980Y-106337100D01*
X101406960Y-106392980D01*
X101424740Y-106428540D01*
X101503480Y-106525060D01*
X101650800Y-106677460D01*
X101871780Y-106895900D01*
X101907340Y-106931460D01*
X102082600Y-107099100D01*
X102229920Y-107236260D01*
X102334060Y-107327700D01*
X102379780Y-107360720D01*
X102379780Y-107360720D01*
G37*
X102379780Y-107360720D02*
X102430580Y-107332780D01*
X102549960Y-107259120D01*
X102715060Y-107149900D01*
X102913180Y-107017820D01*
X103111300Y-106885740D01*
X103273860Y-106776520D01*
X103388160Y-106702860D01*
X103436420Y-106674920D01*
X103461820Y-106685080D01*
X103555800Y-106730800D01*
X103692960Y-106801920D01*
X103771700Y-106842560D01*
X103896160Y-106895900D01*
X103959660Y-106908600D01*
X103969820Y-106890820D01*
X104015540Y-106794300D01*
X104086660Y-106631740D01*
X104180640Y-106413300D01*
X104289860Y-106159300D01*
X104404160Y-105887520D01*
X104521000Y-105608120D01*
X104632760Y-105341420D01*
X104729280Y-105102660D01*
X104808020Y-104907080D01*
X104858820Y-104772460D01*
X104879140Y-104714040D01*
X104874060Y-104701340D01*
X104810560Y-104640380D01*
X104701340Y-104559100D01*
X104465120Y-104366060D01*
X104231440Y-104073960D01*
X104089200Y-103743760D01*
X104040940Y-103375460D01*
X104081580Y-103035100D01*
X104216200Y-102707440D01*
X104444800Y-102412800D01*
X104721660Y-102191820D01*
X105046780Y-102054660D01*
X105410000Y-102008940D01*
X105757980Y-102049580D01*
X106093260Y-102181660D01*
X106387900Y-102405180D01*
X106512360Y-102549960D01*
X106685080Y-102847140D01*
X106781600Y-103167180D01*
X106791760Y-103248460D01*
X106779060Y-103598980D01*
X106674920Y-103936800D01*
X106489500Y-104239060D01*
X106230420Y-104485440D01*
X106199940Y-104508300D01*
X106080560Y-104597200D01*
X105999280Y-104658160D01*
X105938320Y-104708960D01*
X106385360Y-105785920D01*
X106456480Y-105956100D01*
X106578400Y-106250740D01*
X106687620Y-106504740D01*
X106771440Y-106705400D01*
X106832400Y-106840020D01*
X106857800Y-106895900D01*
X106860340Y-106898440D01*
X106900980Y-106906060D01*
X106982260Y-106875580D01*
X107132120Y-106801920D01*
X107231180Y-106751120D01*
X107345480Y-106695240D01*
X107398820Y-106674920D01*
X107442000Y-106700320D01*
X107551220Y-106771440D01*
X107711240Y-106878120D01*
X107904280Y-107007660D01*
X108087160Y-107132120D01*
X108254800Y-107243880D01*
X108379260Y-107322620D01*
X108437680Y-107355640D01*
X108447840Y-107355640D01*
X108501180Y-107325160D01*
X108597700Y-107243880D01*
X108745020Y-107106720D01*
X108950760Y-106900980D01*
X108983780Y-106870500D01*
X109153960Y-106695240D01*
X109291120Y-106550460D01*
X109385100Y-106446320D01*
X109418120Y-106400600D01*
X109418120Y-106400600D01*
X109387640Y-106342180D01*
X109311440Y-106220260D01*
X109199680Y-106047540D01*
X109062520Y-105849420D01*
X108706920Y-105331260D01*
X108902500Y-104841040D01*
X108960920Y-104691180D01*
X109037120Y-104510840D01*
X109095540Y-104381300D01*
X109123480Y-104325420D01*
X109176820Y-104305100D01*
X109311440Y-104274620D01*
X109504480Y-104233980D01*
X109735620Y-104190800D01*
X109956600Y-104150160D01*
X110154720Y-104112060D01*
X110299500Y-104084120D01*
X110363000Y-104071420D01*
X110378240Y-104061260D01*
X110393480Y-104030780D01*
X110401100Y-103962200D01*
X110406180Y-103842820D01*
X110408720Y-103652320D01*
X110408720Y-103375460D01*
X110408720Y-103344980D01*
X110406180Y-103083360D01*
X110401100Y-102872540D01*
X110393480Y-102735380D01*
X110385860Y-102682040D01*
X110383320Y-102682040D01*
X110322360Y-102666800D01*
X110182660Y-102636320D01*
X109982000Y-102598220D01*
X109745780Y-102552500D01*
X109730540Y-102549960D01*
X109494320Y-102504240D01*
X109296200Y-102463600D01*
X109156500Y-102430580D01*
X109098080Y-102412800D01*
X109085380Y-102395020D01*
X109039660Y-102303580D01*
X108971080Y-102156260D01*
X108892340Y-101978460D01*
X108816140Y-101793040D01*
X108747560Y-101625400D01*
X108704380Y-101500940D01*
X108689140Y-101445060D01*
X108691680Y-101442520D01*
X108727240Y-101386640D01*
X108808520Y-101264720D01*
X108922820Y-101094540D01*
X109059980Y-100891340D01*
X109070140Y-100876100D01*
X109207300Y-100677980D01*
X109316520Y-100507800D01*
X109390180Y-100388420D01*
X109418120Y-100332540D01*
X109418120Y-100330000D01*
X109372400Y-100269040D01*
X109270800Y-100157280D01*
X109126020Y-100004880D01*
X108950760Y-99827080D01*
X108894880Y-99773740D01*
X108699300Y-99583240D01*
X108564680Y-99458780D01*
X108480860Y-99392740D01*
X108440220Y-99377500D01*
X108440220Y-99380040D01*
X108379260Y-99415600D01*
X108252260Y-99496880D01*
X108082080Y-99613720D01*
X107878880Y-99750880D01*
X107863640Y-99761040D01*
X107665520Y-99898200D01*
X107497880Y-100009960D01*
X107381040Y-100088700D01*
X107327700Y-100119180D01*
X107320080Y-100119180D01*
X107238800Y-100096320D01*
X107096560Y-100045520D01*
X106921300Y-99976940D01*
X106735880Y-99903280D01*
X106568240Y-99832160D01*
X106441240Y-99776280D01*
X106382820Y-99740720D01*
X106380280Y-99738180D01*
X106359960Y-99667060D01*
X106324400Y-99517200D01*
X106283760Y-99311460D01*
X106235500Y-99067620D01*
X106227880Y-99026980D01*
X106184700Y-98788220D01*
X106146600Y-98592640D01*
X106118660Y-98455480D01*
X106103420Y-98399600D01*
X106070400Y-98391980D01*
X105953560Y-98384360D01*
X105775760Y-98379280D01*
X105559860Y-98376740D01*
X105333800Y-98379280D01*
X105112820Y-98384360D01*
X104924860Y-98389440D01*
X104790240Y-98399600D01*
X104734360Y-98409760D01*
X104731820Y-98414840D01*
X104711500Y-98488500D01*
X104678480Y-98638360D01*
X104635300Y-98844100D01*
X104589580Y-99090480D01*
X104579420Y-99133660D01*
X104536240Y-99369880D01*
X104495600Y-99565460D01*
X104467660Y-99700080D01*
X104452420Y-99753420D01*
X104429560Y-99763580D01*
X104333040Y-99806760D01*
X104173020Y-99872800D01*
X103974900Y-99951540D01*
X103517700Y-100136960D01*
X102956360Y-99753420D01*
X102905560Y-99717860D01*
X102702360Y-99580700D01*
X102537260Y-99471480D01*
X102422960Y-99395280D01*
X102374700Y-99369880D01*
X102369620Y-99369880D01*
X102313740Y-99420680D01*
X102204520Y-99524820D01*
X102052120Y-99672140D01*
X101874320Y-99847400D01*
X101744780Y-99979480D01*
X101589840Y-100136960D01*
X101490780Y-100241100D01*
X101437440Y-100309680D01*
X101419660Y-100350320D01*
X101424740Y-100378260D01*
X101460300Y-100436680D01*
X101541580Y-100558600D01*
X101658420Y-100728780D01*
X101795580Y-100926900D01*
X101907340Y-101094540D01*
X102029260Y-101282500D01*
X102108000Y-101417120D01*
X102135940Y-101483160D01*
X102128320Y-101508560D01*
X102090220Y-101620320D01*
X102021640Y-101785420D01*
X101937820Y-101983540D01*
X101742240Y-102428040D01*
X101452680Y-102483920D01*
X101274880Y-102516940D01*
X101028500Y-102565200D01*
X100792280Y-102610920D01*
X100423980Y-102682040D01*
X100411280Y-104035860D01*
X100467160Y-104061260D01*
X100523040Y-104076500D01*
X100660200Y-104106980D01*
X100853240Y-104145080D01*
X101084380Y-104188260D01*
X101279960Y-104223820D01*
X101478080Y-104261920D01*
X101620320Y-104289860D01*
X101681280Y-104302560D01*
X101699060Y-104325420D01*
X101747320Y-104419400D01*
X101818440Y-104571800D01*
X101897180Y-104754680D01*
X101975920Y-104945180D01*
X102044500Y-105120440D01*
X102092760Y-105252520D01*
X102113080Y-105321100D01*
X102085140Y-105374440D01*
X102011480Y-105491280D01*
X101902260Y-105656380D01*
X101767640Y-105851960D01*
X101633020Y-106047540D01*
X101518720Y-106215180D01*
X101439980Y-106337100D01*
X101406960Y-106392980D01*
X101424740Y-106428540D01*
X101503480Y-106525060D01*
X101650800Y-106677460D01*
X101871780Y-106895900D01*
X101907340Y-106931460D01*
X102082600Y-107099100D01*
X102229920Y-107236260D01*
X102334060Y-107327700D01*
X102379780Y-107360720D01*
D12*
X114300000Y-104775000D03*
D13*
X114300000Y-99775000D03*
X122555000Y-99695000D03*
X122555000Y-89535000D03*
D14*
X102870000Y-85090000D03*
D13*
X102870000Y-82550000D03*
X126365000Y-101600000D03*
D12*
X128905000Y-101600000D03*
D13*
X126365000Y-99060000D03*
X128905000Y-99060000D03*
X126365000Y-96520000D03*
X128905000Y-96520000D03*
X126365000Y-93980000D03*
X128905000Y-93980000D03*
D12*
X118110000Y-93980000D03*
D13*
X115610000Y-93980000D03*
D15*
X102115000Y-94615000D03*
D16*
X105515000Y-90015000D03*
X108415000Y-94615000D03*
D17*
X137160000Y-90170000D03*
X127000000Y-90170000D03*
X137160000Y-86360000D03*
X127000000Y-86360000D03*
D13*
X127000000Y-82550000D03*
D17*
X137160000Y-82550000D03*
D18*
X118110000Y-90170000D03*
D19*
X115570000Y-90170000D03*
X113030000Y-90170000D03*
D18*
X128905000Y-106045000D03*
D19*
X126365000Y-106045000D03*
X123825000Y-106045000D03*
X121285000Y-106045000D03*
D13*
X109220000Y-82550000D03*
D20*
X119380000Y-82550000D03*
D13*
X133350000Y-99060000D03*
D21*
X133350000Y-96520000D03*
D22*
X108415000Y-94615000D02*
X111125000Y-94615000D01*
X111125000Y-94615000D02*
X113030000Y-92710000D01*
X114300000Y-99775000D02*
X114300000Y-98425000D01*
X113030000Y-97155000D02*
X113030000Y-94615000D01*
X114300000Y-98425000D02*
X113030000Y-97155000D01*
X113030000Y-90170000D02*
X113030000Y-92710000D01*
X113030000Y-92710000D02*
X113030000Y-94615000D01*
X118110000Y-89535000D02*
X118150000Y-89575000D01*
X118110000Y-93940000D02*
X118150000Y-93980000D01*
X126365000Y-93980000D02*
X123825000Y-93980000D01*
X123825000Y-93980000D02*
X122555000Y-95250000D01*
X123825000Y-106045000D02*
X123825000Y-103505000D01*
X116840000Y-97790000D02*
X116205000Y-97155000D01*
X116840000Y-101600000D02*
X116840000Y-97790000D01*
X118110000Y-102870000D02*
X116840000Y-101600000D01*
X123190000Y-102870000D02*
X118110000Y-102870000D01*
X123825000Y-103505000D02*
X123190000Y-102870000D01*
X119380000Y-82550000D02*
X121920000Y-82550000D01*
X122555000Y-83185000D02*
X122555000Y-89535000D01*
X121920000Y-82550000D02*
X122555000Y-83185000D01*
X122555000Y-93345000D02*
X122555000Y-95250000D01*
X120650000Y-97155000D02*
X116205000Y-97155000D01*
X122555000Y-95250000D02*
X120650000Y-97155000D01*
X122555000Y-93345000D02*
X122555000Y-89535000D01*
X115610000Y-93980000D02*
X115610000Y-96560000D01*
X115610000Y-96560000D02*
X116205000Y-97155000D01*
X115610000Y-93980000D02*
X115610000Y-90210000D01*
X115610000Y-90210000D02*
X115570000Y-90170000D01*
X126365000Y-106045000D02*
X126365000Y-102235000D01*
X128905000Y-99060000D02*
X133350000Y-99060000D01*
X133350000Y-96520000D02*
X128905000Y-96520000D01*
X127000000Y-90170000D02*
X128905000Y-92075000D01*
X128905000Y-92075000D02*
X128905000Y-93980000D01*
X127000000Y-86360000D02*
X127000000Y-90170000D01*
X128905000Y-106045000D02*
X131445000Y-106045000D01*
X137160000Y-100330000D02*
X137160000Y-90170000D01*
X131445000Y-106045000D02*
X137160000Y-100330000D01*
X137160000Y-86360000D02*
X137160000Y-82550000D01*
X109220000Y-82550000D02*
X102870000Y-82550000D01*
X122555000Y-99695000D02*
X123825000Y-99695000D01*
X124460000Y-99060000D02*
X126365000Y-99060000D01*
X123825000Y-99695000D02*
X124460000Y-99060000D01*
D23*
G36*
X139573000Y-108458000D02*
X98552000Y-108458000D01*
X98552000Y-104029779D01*
X99763039Y-104029779D01*
X99785098Y-104146385D01*
X99804286Y-104263483D01*
X99808552Y-104270361D01*
X99810056Y-104278313D01*
X99875057Y-104377598D01*
X99937598Y-104478442D01*
X99944170Y-104483163D01*
X99948604Y-104489936D01*
X100046660Y-104556794D01*
X100070054Y-104573600D01*
X100070232Y-104573805D01*
X100070582Y-104573979D01*
X100143024Y-104626023D01*
X100198904Y-104651423D01*
X100249804Y-104663356D01*
X100296589Y-104686687D01*
X100352469Y-104701927D01*
X100368083Y-104703020D01*
X100382410Y-104709333D01*
X100519571Y-104739813D01*
X100527418Y-104739988D01*
X100534674Y-104742981D01*
X100727714Y-104781081D01*
X100731074Y-104781076D01*
X100734194Y-104782326D01*
X100965334Y-104825506D01*
X100966931Y-104825487D01*
X100968414Y-104826073D01*
X101160760Y-104861045D01*
X101244069Y-104877066D01*
X101299861Y-105006646D01*
X101374465Y-105187140D01*
X101397111Y-105245012D01*
X101364858Y-105293766D01*
X101233641Y-105484402D01*
X101099021Y-105679982D01*
X101098443Y-105681324D01*
X101097402Y-105682346D01*
X100983102Y-105849986D01*
X100979880Y-105857563D01*
X100974148Y-105863477D01*
X100895408Y-105985397D01*
X100890592Y-105997558D01*
X100881867Y-106007306D01*
X100848847Y-106063186D01*
X100826056Y-106128160D01*
X100791957Y-106187979D01*
X100784598Y-106246355D01*
X100765125Y-106301871D01*
X100768933Y-106370618D01*
X100760321Y-106438935D01*
X100775861Y-106495680D01*
X100779115Y-106554426D01*
X100802757Y-106603615D01*
X100803836Y-106614905D01*
X100813494Y-106633102D01*
X100827130Y-106682895D01*
X100844910Y-106718455D01*
X100879175Y-106762605D01*
X100888690Y-106782402D01*
X100896395Y-106789298D01*
X100922418Y-106838329D01*
X101001158Y-106934849D01*
X101022440Y-106952419D01*
X101037381Y-106975622D01*
X101184701Y-107128022D01*
X101190862Y-107132291D01*
X101195061Y-107138498D01*
X101414728Y-107355640D01*
X101448944Y-107389856D01*
X101455036Y-107393926D01*
X101459241Y-107399927D01*
X101634501Y-107567567D01*
X101638255Y-107569956D01*
X101640857Y-107573565D01*
X101788177Y-107710725D01*
X101796349Y-107715773D01*
X101802191Y-107723396D01*
X101906331Y-107814836D01*
X101933295Y-107830425D01*
X101954504Y-107853239D01*
X102000224Y-107886259D01*
X102100844Y-107932300D01*
X102199036Y-107983283D01*
X102215345Y-107984692D01*
X102230231Y-107991504D01*
X102340813Y-107995535D01*
X102451039Y-108005061D01*
X102466644Y-108000123D01*
X102483005Y-108000719D01*
X102586714Y-107962124D01*
X102692193Y-107928744D01*
X102742994Y-107900804D01*
X102755580Y-107890220D01*
X102770991Y-107884481D01*
X102890371Y-107810821D01*
X102897994Y-107803731D01*
X102907634Y-107799790D01*
X103072734Y-107690570D01*
X103073571Y-107689741D01*
X103074655Y-107689293D01*
X103272776Y-107557213D01*
X103272778Y-107557211D01*
X103470896Y-107425133D01*
X103471738Y-107424293D01*
X103472833Y-107423836D01*
X103478725Y-107419877D01*
X103496958Y-107425122D01*
X103516334Y-107438414D01*
X103640794Y-107491754D01*
X103706758Y-107505713D01*
X103769024Y-107531581D01*
X103832524Y-107544281D01*
X103855817Y-107544305D01*
X103877906Y-107551694D01*
X103981559Y-107544437D01*
X104085466Y-107544545D01*
X104106995Y-107535654D01*
X104130231Y-107534027D01*
X104223217Y-107487656D01*
X104319256Y-107447993D01*
X104335743Y-107431540D01*
X104356588Y-107421145D01*
X104394307Y-107377746D01*
X104404889Y-107371412D01*
X104430330Y-107337151D01*
X104498300Y-107269323D01*
X104507236Y-107247812D01*
X104522516Y-107230232D01*
X104532676Y-107212452D01*
X104540667Y-107188562D01*
X104555686Y-107168336D01*
X104601406Y-107071815D01*
X104603811Y-107062239D01*
X104609457Y-107054139D01*
X104680577Y-106891579D01*
X104681010Y-106889606D01*
X104682155Y-106887942D01*
X104776135Y-106669501D01*
X104776148Y-106669440D01*
X104776186Y-106669385D01*
X104885406Y-106415385D01*
X104885956Y-106412803D01*
X104887434Y-106410616D01*
X105001734Y-106138836D01*
X105001868Y-106138181D01*
X105002241Y-106137627D01*
X105119081Y-105858227D01*
X105119082Y-105858224D01*
X105230657Y-105591967D01*
X105231488Y-105587876D01*
X105233778Y-105584385D01*
X105330297Y-105345625D01*
X105330385Y-105345161D01*
X105330643Y-105344767D01*
X105409383Y-105149188D01*
X105410722Y-105142089D01*
X105414015Y-105136804D01*
X105786623Y-106034452D01*
X105787064Y-106035111D01*
X105787221Y-106035888D01*
X105857973Y-106205188D01*
X105979388Y-106498608D01*
X105981908Y-106502383D01*
X105982854Y-106506825D01*
X106090754Y-106757755D01*
X106173261Y-106955272D01*
X106178690Y-106963344D01*
X106180896Y-106972816D01*
X106241856Y-107107436D01*
X106242130Y-107107818D01*
X106242237Y-107108276D01*
X106267637Y-107164156D01*
X106304179Y-107215021D01*
X106325318Y-107264508D01*
X106366002Y-107304307D01*
X106399404Y-107354296D01*
X106401944Y-107356836D01*
X106409862Y-107362127D01*
X106415218Y-107369582D01*
X106463062Y-107399254D01*
X106506132Y-107441386D01*
X106562108Y-107463854D01*
X106612258Y-107497363D01*
X106625508Y-107499999D01*
X106630177Y-107502894D01*
X106679512Y-107510978D01*
X106740871Y-107535607D01*
X106781511Y-107543227D01*
X106830904Y-107542683D01*
X106878989Y-107553956D01*
X106956200Y-107541304D01*
X107034438Y-107540443D01*
X107079858Y-107521041D01*
X107128603Y-107513054D01*
X107209883Y-107482574D01*
X107237184Y-107465643D01*
X107268224Y-107457369D01*
X107350654Y-107416853D01*
X107350923Y-107417033D01*
X107541297Y-107544784D01*
X107722427Y-107668053D01*
X107725333Y-107669286D01*
X107727565Y-107671513D01*
X107895204Y-107783273D01*
X107902495Y-107786284D01*
X107908208Y-107791719D01*
X108032668Y-107870459D01*
X108047901Y-107876328D01*
X108060274Y-107886980D01*
X108118694Y-107920000D01*
X108156503Y-107932450D01*
X108189598Y-107954563D01*
X108247030Y-107965987D01*
X108277269Y-107981067D01*
X108311408Y-107983457D01*
X108358947Y-107999111D01*
X108398641Y-107996145D01*
X108437680Y-108003910D01*
X108447840Y-108003910D01*
X108488371Y-107995848D01*
X108529594Y-107998734D01*
X108577239Y-107982797D01*
X108611185Y-107980260D01*
X108640112Y-107965664D01*
X108695922Y-107954563D01*
X108730281Y-107931605D01*
X108769472Y-107918496D01*
X108822812Y-107888016D01*
X108867220Y-107849419D01*
X108918754Y-107821029D01*
X109015274Y-107739749D01*
X109025506Y-107726954D01*
X109039443Y-107718345D01*
X109186763Y-107581185D01*
X109193640Y-107571648D01*
X109203416Y-107565116D01*
X109399985Y-107368547D01*
X109423489Y-107346851D01*
X109434067Y-107332313D01*
X109448867Y-107322106D01*
X109619047Y-107146846D01*
X109621256Y-107143432D01*
X109624573Y-107141084D01*
X109761733Y-106996305D01*
X109765989Y-106989548D01*
X109772391Y-106984778D01*
X109866371Y-106880638D01*
X109884590Y-106850093D01*
X109910639Y-106825876D01*
X109943659Y-106780156D01*
X109986794Y-106685888D01*
X110036565Y-106594968D01*
X110039107Y-106571560D01*
X110048904Y-106550149D01*
X110052681Y-106446551D01*
X110063870Y-106343504D01*
X110057261Y-106320907D01*
X110058119Y-106297375D01*
X110021963Y-106200219D01*
X109992866Y-106100732D01*
X109962386Y-106042312D01*
X109946408Y-106022441D01*
X109937372Y-105998598D01*
X109861172Y-105876678D01*
X109857621Y-105872904D01*
X109855708Y-105868086D01*
X109743948Y-105695366D01*
X109736778Y-105687981D01*
X109732683Y-105678539D01*
X109596196Y-105481390D01*
X109457816Y-105279750D01*
X112423000Y-105279750D01*
X112423000Y-105909392D01*
X112564127Y-106250104D01*
X112824897Y-106510873D01*
X113165608Y-106652000D01*
X113795250Y-106652000D01*
X114027000Y-106420250D01*
X114027000Y-105048000D01*
X114573000Y-105048000D01*
X114573000Y-106420250D01*
X114804750Y-106652000D01*
X115434392Y-106652000D01*
X115530316Y-106612267D01*
X119424948Y-106612267D01*
X119668815Y-107303734D01*
X120158731Y-107849242D01*
X120724856Y-108136471D01*
X121012000Y-107967442D01*
X121012000Y-106318000D01*
X119637789Y-106318000D01*
X119424948Y-106612267D01*
X115530316Y-106612267D01*
X115775103Y-106510873D01*
X116035873Y-106250104D01*
X116177000Y-105909392D01*
X116177000Y-105279750D01*
X115945250Y-105048000D01*
X114573000Y-105048000D01*
X114027000Y-105048000D01*
X114027000Y-105048000D01*
X112654750Y-105048000D01*
X112423000Y-105279750D01*
X109457816Y-105279750D01*
X109437336Y-105249908D01*
X109504619Y-105081263D01*
X109505095Y-105078695D01*
X109506498Y-105076497D01*
X109561612Y-104935119D01*
X109585120Y-104879483D01*
X109630766Y-104869874D01*
X109853701Y-104828226D01*
X110073856Y-104787738D01*
X110076348Y-104786748D01*
X110079024Y-104786765D01*
X110277144Y-104748665D01*
X110277341Y-104748585D01*
X110277558Y-104748586D01*
X110422338Y-104720646D01*
X110424406Y-104719803D01*
X110426636Y-104719801D01*
X110490137Y-104707101D01*
X110556144Y-104679679D01*
X110583241Y-104676263D01*
X110633532Y-104647595D01*
X110722595Y-104610813D01*
X110737835Y-104600653D01*
X110767086Y-104571463D01*
X110802987Y-104550998D01*
X110855850Y-104482885D01*
X110916879Y-104421983D01*
X110932733Y-104383822D01*
X110958070Y-104351175D01*
X110973310Y-104320695D01*
X111001068Y-104219335D01*
X111013921Y-104188396D01*
X111013932Y-104177607D01*
X111037785Y-104102369D01*
X111045405Y-104033789D01*
X111043490Y-104011499D01*
X111048784Y-103989761D01*
X111053864Y-103870381D01*
X111052390Y-103860872D01*
X111054392Y-103851463D01*
X111056932Y-103660963D01*
X111056131Y-103656637D01*
X111056990Y-103652320D01*
X111056990Y-103640608D01*
X112423000Y-103640608D01*
X112423000Y-104270250D01*
X112654750Y-104502000D01*
X114027000Y-104502000D01*
X114027000Y-103129750D01*
X114573000Y-103129750D01*
X114573000Y-104502000D01*
X115945250Y-104502000D01*
X116177000Y-104270250D01*
X116177000Y-103640608D01*
X116035873Y-103299896D01*
X115775103Y-103039127D01*
X115434392Y-102898000D01*
X114804750Y-102898000D01*
X114573000Y-103129750D01*
X114027000Y-103129750D01*
X114027000Y-103129750D01*
X113795250Y-102898000D01*
X113165608Y-102898000D01*
X112824897Y-103039127D01*
X112564127Y-103299896D01*
X112423000Y-103640608D01*
X111056990Y-103640608D01*
X111056990Y-103344980D01*
X111056364Y-103341835D01*
X111056959Y-103338686D01*
X111054419Y-103077066D01*
X111053448Y-103072421D01*
X111054262Y-103067743D01*
X111049182Y-102856924D01*
X111046919Y-102846826D01*
X111048372Y-102836581D01*
X111040752Y-102699420D01*
X111033693Y-102671987D01*
X111035235Y-102643701D01*
X111027615Y-102590361D01*
X111000641Y-102513680D01*
X110984783Y-102433958D01*
X110959049Y-102395444D01*
X110943679Y-102351751D01*
X110889417Y-102291232D01*
X110844256Y-102223644D01*
X110805743Y-102197911D01*
X110774822Y-102163424D01*
X110701527Y-102128275D01*
X110633942Y-102083117D01*
X110588514Y-102074081D01*
X110546748Y-102054052D01*
X110541955Y-102053791D01*
X110540548Y-102053126D01*
X110479589Y-102037886D01*
X110469661Y-102037403D01*
X110460549Y-102033430D01*
X110320850Y-102002950D01*
X110311894Y-102002785D01*
X110303589Y-101999429D01*
X110103974Y-101961527D01*
X109868966Y-101916042D01*
X109860385Y-101916086D01*
X109855935Y-101914404D01*
X109853726Y-101913502D01*
X109853366Y-101913432D01*
X109852355Y-101913050D01*
X109845412Y-101911893D01*
X109621073Y-101868472D01*
X109545788Y-101853029D01*
X109488629Y-101723962D01*
X109415991Y-101547209D01*
X109409826Y-101532140D01*
X109460504Y-101456687D01*
X109597298Y-101254030D01*
X109598034Y-101252277D01*
X109599373Y-101250935D01*
X109606360Y-101240455D01*
X109740303Y-101046981D01*
X109744885Y-101036416D01*
X109752875Y-101028125D01*
X109862095Y-100857946D01*
X109864235Y-100852496D01*
X109868221Y-100848211D01*
X109941881Y-100728831D01*
X109952085Y-100701432D01*
X109970010Y-100678335D01*
X109997950Y-100622455D01*
X110004102Y-100599989D01*
X110017043Y-100580622D01*
X110034064Y-100495050D01*
X110059874Y-100421679D01*
X110058722Y-100400540D01*
X110064759Y-100378495D01*
X110061846Y-100355385D01*
X110066390Y-100332540D01*
X110066390Y-100330000D01*
X110050532Y-100250276D01*
X110046108Y-100169112D01*
X110035602Y-100147204D01*
X110033123Y-100127539D01*
X110022363Y-100108663D01*
X110017043Y-100081918D01*
X109971885Y-100014333D01*
X109936736Y-99941038D01*
X109891016Y-99880078D01*
X109868008Y-99859449D01*
X109852081Y-99832966D01*
X109750481Y-99721206D01*
X109744660Y-99716903D01*
X109740795Y-99710784D01*
X109596015Y-99558384D01*
X109591045Y-99554875D01*
X109587702Y-99549794D01*
X109412442Y-99371993D01*
X109404141Y-99366360D01*
X109398375Y-99358150D01*
X109344838Y-99307047D01*
X109151625Y-99118853D01*
X109144429Y-99114180D01*
X109139382Y-99107233D01*
X109004762Y-98982773D01*
X108982691Y-98969246D01*
X108965876Y-98949569D01*
X108882056Y-98883529D01*
X108793214Y-98838294D01*
X108708483Y-98785746D01*
X108667843Y-98770506D01*
X108627214Y-98763849D01*
X108605201Y-98753115D01*
X108540411Y-98749159D01*
X108440220Y-98729230D01*
X108429256Y-98731411D01*
X108418229Y-98729604D01*
X108377293Y-98739201D01*
X108352728Y-98737701D01*
X108291354Y-98758842D01*
X108192138Y-98778577D01*
X108182846Y-98784786D01*
X108171964Y-98787337D01*
X108138193Y-98811599D01*
X108113576Y-98820078D01*
X108052616Y-98855638D01*
X108042449Y-98864635D01*
X108029808Y-98869581D01*
X107902808Y-98950861D01*
X107895127Y-98958245D01*
X107885335Y-98962446D01*
X107717348Y-99077780D01*
X107517742Y-99212515D01*
X107504045Y-99221647D01*
X107499949Y-99225734D01*
X107494639Y-99228037D01*
X107301172Y-99361975D01*
X107237393Y-99404494D01*
X107159054Y-99373840D01*
X106982193Y-99303580D01*
X106939415Y-99285431D01*
X106919741Y-99185834D01*
X106919695Y-99185722D01*
X106919695Y-99185598D01*
X106872068Y-98944956D01*
X106865428Y-98909543D01*
X106822622Y-98672851D01*
X106820991Y-98668712D01*
X106821009Y-98664263D01*
X106782909Y-98468684D01*
X106781838Y-98466069D01*
X106781825Y-98463243D01*
X106753885Y-98326082D01*
X106745585Y-98306302D01*
X106744087Y-98284909D01*
X106728847Y-98229029D01*
X106686655Y-98144424D01*
X106653152Y-98056018D01*
X106630632Y-98032083D01*
X106615965Y-98002672D01*
X106544607Y-97940653D01*
X106479823Y-97871798D01*
X106449857Y-97858303D01*
X106425052Y-97836744D01*
X106364998Y-97816656D01*
X106356933Y-97810472D01*
X106324201Y-97801713D01*
X106249190Y-97767931D01*
X106216170Y-97760311D01*
X106194583Y-97759654D01*
X106185173Y-97756506D01*
X106161472Y-97758165D01*
X106112589Y-97745084D01*
X105995749Y-97737464D01*
X105983813Y-97739039D01*
X105972075Y-97736354D01*
X105794274Y-97731274D01*
X105788808Y-97732200D01*
X105783386Y-97731055D01*
X105567486Y-97728515D01*
X105560031Y-97729907D01*
X105552576Y-97728511D01*
X105326517Y-97731051D01*
X105322722Y-97731850D01*
X105318901Y-97731181D01*
X105097921Y-97736261D01*
X105096618Y-97736551D01*
X105095306Y-97736327D01*
X104907346Y-97741407D01*
X104891851Y-97744927D01*
X104876073Y-97743008D01*
X104741453Y-97753168D01*
X104708487Y-97762351D01*
X104674274Y-97761787D01*
X104618394Y-97771947D01*
X104575316Y-97788964D01*
X104529359Y-97794757D01*
X104458739Y-97835013D01*
X104450949Y-97838091D01*
X104411830Y-97851049D01*
X104406512Y-97855644D01*
X104383141Y-97864876D01*
X104349853Y-97897083D01*
X104309613Y-97920022D01*
X104264036Y-97978748D01*
X104220435Y-98016420D01*
X104214688Y-98027861D01*
X104201358Y-98040758D01*
X104182929Y-98083252D01*
X104154530Y-98119844D01*
X104151990Y-98124925D01*
X104135285Y-98185927D01*
X104106892Y-98242447D01*
X104086573Y-98316106D01*
X104085322Y-98333257D01*
X104078416Y-98349007D01*
X104045396Y-98498867D01*
X104045328Y-98502166D01*
X104044032Y-98505205D01*
X104000853Y-98710944D01*
X104000772Y-98718656D01*
X103997911Y-98725822D01*
X103955005Y-98957037D01*
X103948383Y-98985181D01*
X103947808Y-99001713D01*
X103941717Y-99017091D01*
X103899944Y-99245615D01*
X103891309Y-99287169D01*
X103735471Y-99349105D01*
X103733533Y-99350360D01*
X103731264Y-99350794D01*
X103596305Y-99405527D01*
X103325159Y-99220264D01*
X103277318Y-99186777D01*
X103272192Y-99184522D01*
X103268249Y-99180542D01*
X103065049Y-99043382D01*
X103062218Y-99042194D01*
X103060034Y-99040030D01*
X102895778Y-98931368D01*
X102782555Y-98855887D01*
X102751228Y-98842949D01*
X102724889Y-98821614D01*
X102676629Y-98796214D01*
X102654204Y-98789568D01*
X102645909Y-98783435D01*
X102638814Y-98781669D01*
X102622782Y-98770957D01*
X102527376Y-98751979D01*
X102434114Y-98724339D01*
X102416077Y-98726232D01*
X102400455Y-98722344D01*
X102387871Y-98724230D01*
X102374700Y-98721610D01*
X102369620Y-98721610D01*
X102268538Y-98741717D01*
X102182553Y-98750741D01*
X102171707Y-98756628D01*
X102150307Y-98759835D01*
X102136892Y-98767903D01*
X102121538Y-98770957D01*
X102028958Y-98832817D01*
X102006976Y-98846037D01*
X101960245Y-98871401D01*
X101955915Y-98876746D01*
X101933547Y-98890199D01*
X101877666Y-98940999D01*
X101873004Y-98947305D01*
X101866385Y-98951503D01*
X101757165Y-99055643D01*
X101755862Y-99057496D01*
X101753958Y-99058722D01*
X101601558Y-99206041D01*
X101599723Y-99208689D01*
X101597034Y-99210458D01*
X101419233Y-99385718D01*
X101416101Y-99390333D01*
X101411495Y-99393476D01*
X101282338Y-99525166D01*
X101127732Y-99682306D01*
X101124679Y-99686957D01*
X101120131Y-99690163D01*
X101021071Y-99794303D01*
X101003674Y-99821804D01*
X100979066Y-99843101D01*
X100925727Y-99911681D01*
X100894735Y-99973503D01*
X100886658Y-99981318D01*
X100879034Y-99998898D01*
X100843523Y-100049841D01*
X100825743Y-100090481D01*
X100817682Y-100127206D01*
X100812371Y-100137801D01*
X100811090Y-100155569D01*
X100786019Y-100213378D01*
X100784983Y-100276187D01*
X100771516Y-100337543D01*
X100782917Y-100401416D01*
X100781847Y-100466286D01*
X100786927Y-100494226D01*
X100809835Y-100552219D01*
X100815963Y-100586549D01*
X100834509Y-100615526D01*
X100870989Y-100715326D01*
X100906549Y-100773746D01*
X100915729Y-100783736D01*
X100920907Y-100796275D01*
X101002187Y-100918196D01*
X101005370Y-100921386D01*
X101007146Y-100925525D01*
X101123986Y-101095705D01*
X101124905Y-101096601D01*
X101125417Y-101097782D01*
X101259348Y-101291236D01*
X101365675Y-101450727D01*
X101422365Y-101538123D01*
X101342586Y-101726691D01*
X101285892Y-101855540D01*
X101156511Y-101879568D01*
X101153505Y-101880768D01*
X101150267Y-101880759D01*
X100904151Y-101928967D01*
X100669368Y-101974409D01*
X100301067Y-102045529D01*
X100243069Y-102069173D01*
X100181527Y-102080816D01*
X100127091Y-102116455D01*
X100066842Y-102141017D01*
X100022307Y-102185056D01*
X99969904Y-102219364D01*
X99933250Y-102273122D01*
X99886986Y-102318871D01*
X99862694Y-102376601D01*
X99827410Y-102428350D01*
X99814118Y-102492043D01*
X99788884Y-102552014D01*
X99788534Y-102614647D01*
X99775739Y-102675959D01*
X99763039Y-104029779D01*
X98552000Y-104029779D01*
X98552000Y-95119750D01*
X99438000Y-95119750D01*
X99438000Y-96799392D01*
X99579127Y-97140103D01*
X99839896Y-97400873D01*
X100180608Y-97542000D01*
X101610250Y-97542000D01*
X101842000Y-97310250D01*
X101842000Y-94888000D01*
X102388000Y-94888000D01*
X102388000Y-97310250D01*
X102619750Y-97542000D01*
X104049392Y-97542000D01*
X104390104Y-97400873D01*
X104650873Y-97140103D01*
X104792000Y-96799392D01*
X104792000Y-95119750D01*
X104560250Y-94888000D01*
X102388000Y-94888000D01*
X101842000Y-94888000D01*
X101842000Y-94888000D01*
X99669750Y-94888000D01*
X99438000Y-95119750D01*
X98552000Y-95119750D01*
X98552000Y-92430608D01*
X99438000Y-92430608D01*
X99438000Y-94110250D01*
X99669750Y-94342000D01*
X101842000Y-94342000D01*
X101842000Y-91919750D01*
X102388000Y-91919750D01*
X102388000Y-94342000D01*
X104560250Y-94342000D01*
X104792000Y-94110250D01*
X104792000Y-92865000D01*
X105673757Y-92865000D01*
X105673757Y-96365000D01*
X105727541Y-96642202D01*
X105887583Y-96885838D01*
X106129191Y-97048926D01*
X106415000Y-97106243D01*
X110415000Y-97106243D01*
X110692202Y-97052459D01*
X110935838Y-96892417D01*
X111098926Y-96650809D01*
X111156243Y-96365000D01*
X111156243Y-95843785D01*
X111597614Y-95755991D01*
X111795000Y-95624102D01*
X111795000Y-97155000D01*
X111889009Y-97627614D01*
X112156723Y-98028277D01*
X112915732Y-98787286D01*
X112879138Y-98823816D01*
X112623292Y-99439961D01*
X112622710Y-100107112D01*
X112877480Y-100723703D01*
X113348816Y-101195862D01*
X113964961Y-101451708D01*
X114632112Y-101452290D01*
X115248703Y-101197520D01*
X115605000Y-100841844D01*
X115605000Y-101600000D01*
X115699009Y-102072614D01*
X115966723Y-102473277D01*
X117236723Y-103743277D01*
X117637386Y-104010991D01*
X118110000Y-104105000D01*
X120426308Y-104105000D01*
X120158731Y-104240758D01*
X119668815Y-104786266D01*
X119424948Y-105477733D01*
X119637789Y-105772000D01*
X121012000Y-105772000D01*
X121012000Y-105752000D01*
X121558000Y-105752000D01*
X121558000Y-105772000D01*
X121578000Y-105772000D01*
X121578000Y-106318000D01*
X121558000Y-106318000D01*
X121558000Y-107967442D01*
X121845144Y-108136471D01*
X122411269Y-107849242D01*
X122653729Y-107579270D01*
X123183240Y-107933078D01*
X123825000Y-108060732D01*
X124466760Y-107933078D01*
X125010818Y-107569550D01*
X125095000Y-107443563D01*
X125179182Y-107569550D01*
X125723240Y-107933078D01*
X126365000Y-108060732D01*
X127006760Y-107933078D01*
X127352740Y-107701902D01*
X127427583Y-107815838D01*
X127669191Y-107978926D01*
X127955000Y-108036243D01*
X129855000Y-108036243D01*
X130132202Y-107982459D01*
X130375838Y-107822417D01*
X130538926Y-107580809D01*
X130596243Y-107295000D01*
X130596243Y-107280000D01*
X131445000Y-107280000D01*
X131917614Y-107185991D01*
X132318277Y-106918277D01*
X138033277Y-101203277D01*
X138300991Y-100802614D01*
X138395001Y-100330000D01*
X138395000Y-100329995D01*
X138395000Y-91376651D01*
X138622794Y-91149255D01*
X138886190Y-90514927D01*
X138886789Y-89828087D01*
X138624500Y-89193300D01*
X138139255Y-88707206D01*
X137504927Y-88443810D01*
X136818087Y-88443211D01*
X136183300Y-88705500D01*
X135697206Y-89190745D01*
X135433810Y-89825073D01*
X135433211Y-90511913D01*
X135695500Y-91146700D01*
X135925000Y-91376602D01*
X135925000Y-99818446D01*
X130933446Y-104810000D01*
X130596243Y-104810000D01*
X130596243Y-104795000D01*
X130542459Y-104517798D01*
X130382417Y-104274162D01*
X130140809Y-104111074D01*
X129855000Y-104053757D01*
X127955000Y-104053757D01*
X127677798Y-104107541D01*
X127600000Y-104158646D01*
X127600000Y-103406332D01*
X127770608Y-103477000D01*
X128400250Y-103477000D01*
X128632000Y-103245250D01*
X128632000Y-101873000D01*
X129178000Y-101873000D01*
X129178000Y-103245250D01*
X129409750Y-103477000D01*
X130039392Y-103477000D01*
X130380104Y-103335873D01*
X130640873Y-103075103D01*
X130782000Y-102734392D01*
X130782000Y-102104750D01*
X130550250Y-101873000D01*
X129178000Y-101873000D01*
X128632000Y-101873000D01*
X128632000Y-101873000D01*
X128612000Y-101873000D01*
X128612000Y-101327000D01*
X128632000Y-101327000D01*
X128632000Y-101307000D01*
X129178000Y-101307000D01*
X129178000Y-101327000D01*
X130550250Y-101327000D01*
X130782000Y-101095250D01*
X130782000Y-100465608D01*
X130711332Y-100295000D01*
X132213278Y-100295000D01*
X132398816Y-100480862D01*
X133014961Y-100736708D01*
X133682112Y-100737290D01*
X134298703Y-100482520D01*
X134770862Y-100011184D01*
X135026708Y-99395039D01*
X135027290Y-98727888D01*
X134772520Y-98111297D01*
X134448143Y-97786353D01*
X134568672Y-97705818D01*
X134932200Y-97161760D01*
X135059854Y-96520000D01*
X134932200Y-95878240D01*
X134568672Y-95334182D01*
X134024614Y-94970654D01*
X133382854Y-94843000D01*
X133317146Y-94843000D01*
X132675386Y-94970654D01*
X132204934Y-95285000D01*
X130041722Y-95285000D01*
X130006636Y-95249853D01*
X130325862Y-94931184D01*
X130581708Y-94315039D01*
X130582290Y-93647888D01*
X130327520Y-93031297D01*
X130140000Y-92843450D01*
X130140000Y-92075000D01*
X130045991Y-91602386D01*
X129778277Y-91201723D01*
X128726508Y-90149954D01*
X128726789Y-89828087D01*
X128464500Y-89193300D01*
X128235000Y-88963398D01*
X128235000Y-87566651D01*
X128462794Y-87339255D01*
X128726190Y-86704927D01*
X128726789Y-86018087D01*
X128464500Y-85383300D01*
X127979255Y-84897206D01*
X127344927Y-84633810D01*
X126658087Y-84633211D01*
X126023300Y-84895500D01*
X125537206Y-85380745D01*
X125273810Y-86015073D01*
X125273211Y-86701913D01*
X125535500Y-87336700D01*
X125765000Y-87566602D01*
X125765000Y-88963349D01*
X125537206Y-89190745D01*
X125273810Y-89825073D01*
X125273211Y-90511913D01*
X125535500Y-91146700D01*
X126020745Y-91632794D01*
X126655073Y-91896190D01*
X126979919Y-91896473D01*
X127670000Y-92586554D01*
X127670000Y-92843278D01*
X127634853Y-92878364D01*
X127316184Y-92559138D01*
X126700039Y-92303292D01*
X126032888Y-92302710D01*
X125416297Y-92557480D01*
X125228450Y-92745000D01*
X123825000Y-92745000D01*
X123790000Y-92751962D01*
X123790000Y-90671722D01*
X123975862Y-90486184D01*
X124231708Y-89870039D01*
X124232290Y-89202888D01*
X123977520Y-88586297D01*
X123790000Y-88398450D01*
X123790000Y-83916640D01*
X126019440Y-83916640D01*
X126107478Y-84242906D01*
X126823264Y-84455595D01*
X127565957Y-84378174D01*
X127892522Y-84242906D01*
X127980560Y-83916640D01*
X127000000Y-82936080D01*
X126019440Y-83916640D01*
X123790000Y-83916640D01*
X123790000Y-83185000D01*
X123695991Y-82712386D01*
X123469398Y-82373264D01*
X125094405Y-82373264D01*
X125171826Y-83115957D01*
X125307094Y-83442522D01*
X125633360Y-83530560D01*
X126613920Y-82550000D01*
X127386080Y-82550000D01*
X128366640Y-83530560D01*
X128692906Y-83442522D01*
X128856514Y-82891913D01*
X135433211Y-82891913D01*
X135695500Y-83526700D01*
X135925000Y-83756602D01*
X135925000Y-85153349D01*
X135697206Y-85380745D01*
X135433810Y-86015073D01*
X135433211Y-86701913D01*
X135695500Y-87336700D01*
X136180745Y-87822794D01*
X136815073Y-88086190D01*
X137501913Y-88086789D01*
X138136700Y-87824500D01*
X138622794Y-87339255D01*
X138886190Y-86704927D01*
X138886789Y-86018087D01*
X138624500Y-85383300D01*
X138395000Y-85153398D01*
X138395000Y-83756651D01*
X138622794Y-83529255D01*
X138886190Y-82894927D01*
X138886789Y-82208087D01*
X138624500Y-81573300D01*
X138139255Y-81087206D01*
X137504927Y-80823810D01*
X136818087Y-80823211D01*
X136183300Y-81085500D01*
X135697206Y-81570745D01*
X135433810Y-82205073D01*
X135433211Y-82891913D01*
X128856514Y-82891913D01*
X128905595Y-82726736D01*
X128828174Y-81984043D01*
X128692906Y-81657478D01*
X128366640Y-81569440D01*
X127386080Y-82550000D01*
X126613920Y-82550000D01*
X126613920Y-82550000D01*
X125633360Y-81569440D01*
X125307094Y-81657478D01*
X125094405Y-82373264D01*
X123469398Y-82373264D01*
X123428277Y-82311723D01*
X122793277Y-81676723D01*
X122392614Y-81409009D01*
X121920000Y-81315000D01*
X120580307Y-81315000D01*
X120448897Y-81183360D01*
X126019440Y-81183360D01*
X127000000Y-82163920D01*
X127980560Y-81183360D01*
X127892522Y-80857094D01*
X127176736Y-80644405D01*
X126434043Y-80721826D01*
X126107478Y-80857094D01*
X126019440Y-81183360D01*
X120448897Y-81183360D01*
X120356708Y-81091011D01*
X119724030Y-80828300D01*
X119038976Y-80827702D01*
X118405840Y-81089308D01*
X117921011Y-81573292D01*
X117658300Y-82205970D01*
X117657702Y-82891024D01*
X117919308Y-83524160D01*
X118403292Y-84008989D01*
X119035970Y-84271700D01*
X119721024Y-84272298D01*
X120354160Y-84010692D01*
X120580246Y-83785000D01*
X121320000Y-83785000D01*
X121320000Y-88398278D01*
X121134138Y-88583816D01*
X120878292Y-89199961D01*
X120877710Y-89867112D01*
X121132480Y-90483703D01*
X121320000Y-90671550D01*
X121320000Y-94738446D01*
X120138446Y-95920000D01*
X116845000Y-95920000D01*
X116845000Y-95802901D01*
X116975608Y-95857000D01*
X117605250Y-95857000D01*
X117837000Y-95625250D01*
X117837000Y-94253000D01*
X118383000Y-94253000D01*
X118383000Y-95625250D01*
X118614750Y-95857000D01*
X119244392Y-95857000D01*
X119585104Y-95715873D01*
X119845873Y-95455103D01*
X119987000Y-95114392D01*
X119987000Y-94484750D01*
X119755250Y-94253000D01*
X118383000Y-94253000D01*
X117837000Y-94253000D01*
X117837000Y-94253000D01*
X117817000Y-94253000D01*
X117817000Y-93707000D01*
X117837000Y-93707000D01*
X117837000Y-92334750D01*
X117727250Y-92225000D01*
X117837000Y-92115250D01*
X117837000Y-90443000D01*
X118383000Y-90443000D01*
X118383000Y-92115250D01*
X118492750Y-92225000D01*
X118383000Y-92334750D01*
X118383000Y-93707000D01*
X119755250Y-93707000D01*
X119987000Y-93475250D01*
X119987000Y-92845608D01*
X119845873Y-92504897D01*
X119585104Y-92244127D01*
X119538927Y-92225000D01*
X119585103Y-92205873D01*
X119845873Y-91945104D01*
X119987000Y-91604392D01*
X119987000Y-90674750D01*
X119755250Y-90443000D01*
X118383000Y-90443000D01*
X117837000Y-90443000D01*
X117837000Y-90443000D01*
X117817000Y-90443000D01*
X117817000Y-89897000D01*
X117837000Y-89897000D01*
X117837000Y-88224750D01*
X118383000Y-88224750D01*
X118383000Y-89897000D01*
X119755250Y-89897000D01*
X119987000Y-89665250D01*
X119987000Y-88735608D01*
X119845873Y-88394896D01*
X119585103Y-88134127D01*
X119244392Y-87993000D01*
X118614750Y-87993000D01*
X118383000Y-88224750D01*
X117837000Y-88224750D01*
X117837000Y-88224750D01*
X117605250Y-87993000D01*
X116975608Y-87993000D01*
X116634897Y-88134127D01*
X116376815Y-88392208D01*
X116211760Y-88281922D01*
X115570000Y-88154268D01*
X114928240Y-88281922D01*
X114384182Y-88645450D01*
X114300000Y-88771437D01*
X114215818Y-88645450D01*
X113671760Y-88281922D01*
X113030000Y-88154268D01*
X112388240Y-88281922D01*
X111844182Y-88645450D01*
X111480654Y-89189508D01*
X111353000Y-89831268D01*
X111353000Y-90508732D01*
X111480654Y-91150492D01*
X111795000Y-91620944D01*
X111795000Y-92198446D01*
X111151726Y-92841720D01*
X111102459Y-92587798D01*
X110942417Y-92344162D01*
X110700809Y-92181074D01*
X110415000Y-92123757D01*
X108369776Y-92123757D01*
X108442000Y-91949392D01*
X108442000Y-90519750D01*
X108210250Y-90288000D01*
X105788000Y-90288000D01*
X105788000Y-92460250D01*
X105801946Y-92474196D01*
X105731074Y-92579191D01*
X105673757Y-92865000D01*
X104792000Y-92865000D01*
X104792000Y-92692000D01*
X105010250Y-92692000D01*
X105242000Y-92460250D01*
X105242000Y-90288000D01*
X102819750Y-90288000D01*
X102588000Y-90519750D01*
X102588000Y-91719750D01*
X102388000Y-91919750D01*
X101842000Y-91919750D01*
X101842000Y-91919750D01*
X101610250Y-91688000D01*
X100180608Y-91688000D01*
X99839896Y-91829127D01*
X99579127Y-92089897D01*
X99438000Y-92430608D01*
X98552000Y-92430608D01*
X98552000Y-88080608D01*
X102588000Y-88080608D01*
X102588000Y-89510250D01*
X102819750Y-89742000D01*
X105242000Y-89742000D01*
X105242000Y-87569750D01*
X105788000Y-87569750D01*
X105788000Y-89742000D01*
X108210250Y-89742000D01*
X108442000Y-89510250D01*
X108442000Y-88080608D01*
X108300873Y-87739897D01*
X108040104Y-87479127D01*
X107699392Y-87338000D01*
X106019750Y-87338000D01*
X105788000Y-87569750D01*
X105242000Y-87569750D01*
X105242000Y-87569750D01*
X105010250Y-87338000D01*
X103330608Y-87338000D01*
X102989896Y-87479127D01*
X102729127Y-87739897D01*
X102588000Y-88080608D01*
X98552000Y-88080608D01*
X98552000Y-85594750D01*
X100943000Y-85594750D01*
X100943000Y-86224392D01*
X101084127Y-86565103D01*
X101344896Y-86825873D01*
X101685608Y-86967000D01*
X102365250Y-86967000D01*
X102597000Y-86735250D01*
X102597000Y-85363000D01*
X103143000Y-85363000D01*
X103143000Y-86735250D01*
X103374750Y-86967000D01*
X104054392Y-86967000D01*
X104395104Y-86825873D01*
X104655873Y-86565103D01*
X104797000Y-86224392D01*
X104797000Y-85594750D01*
X104565250Y-85363000D01*
X103143000Y-85363000D01*
X102597000Y-85363000D01*
X102597000Y-85363000D01*
X101174750Y-85363000D01*
X100943000Y-85594750D01*
X98552000Y-85594750D01*
X98552000Y-83955608D01*
X100943000Y-83955608D01*
X100943000Y-84585250D01*
X101174750Y-84817000D01*
X102597000Y-84817000D01*
X102597000Y-84797000D01*
X103143000Y-84797000D01*
X103143000Y-84817000D01*
X104565250Y-84817000D01*
X104797000Y-84585250D01*
X104797000Y-83955608D01*
X104726332Y-83785000D01*
X108083278Y-83785000D01*
X108268816Y-83970862D01*
X108884961Y-84226708D01*
X109552112Y-84227290D01*
X110168703Y-83972520D01*
X110640862Y-83501184D01*
X110896708Y-82885039D01*
X110897290Y-82217888D01*
X110642520Y-81601297D01*
X110171184Y-81129138D01*
X109555039Y-80873292D01*
X108887888Y-80872710D01*
X108271297Y-81127480D01*
X108083450Y-81315000D01*
X104006722Y-81315000D01*
X103821184Y-81129138D01*
X103205039Y-80873292D01*
X102537888Y-80872710D01*
X101921297Y-81127480D01*
X101449138Y-81598816D01*
X101193292Y-82214961D01*
X101192710Y-82882112D01*
X101381481Y-83338973D01*
X101344896Y-83354127D01*
X101084127Y-83614897D01*
X100943000Y-83955608D01*
X98552000Y-83955608D01*
X98552000Y-80137000D01*
X139573000Y-80137000D01*
X139573000Y-108458000D01*
X139573000Y-108458000D01*
G37*
X139573000Y-108458000D02*
X98552000Y-108458000D01*
X98552000Y-104029779D01*
X99763039Y-104029779D01*
X99785098Y-104146385D01*
X99804286Y-104263483D01*
X99808552Y-104270361D01*
X99810056Y-104278313D01*
X99875057Y-104377598D01*
X99937598Y-104478442D01*
X99944170Y-104483163D01*
X99948604Y-104489936D01*
X100046660Y-104556794D01*
X100070054Y-104573600D01*
X100070232Y-104573805D01*
X100070582Y-104573979D01*
X100143024Y-104626023D01*
X100198904Y-104651423D01*
X100249804Y-104663356D01*
X100296589Y-104686687D01*
X100352469Y-104701927D01*
X100368083Y-104703020D01*
X100382410Y-104709333D01*
X100519571Y-104739813D01*
X100527418Y-104739988D01*
X100534674Y-104742981D01*
X100727714Y-104781081D01*
X100731074Y-104781076D01*
X100734194Y-104782326D01*
X100965334Y-104825506D01*
X100966931Y-104825487D01*
X100968414Y-104826073D01*
X101160760Y-104861045D01*
X101244069Y-104877066D01*
X101299861Y-105006646D01*
X101374465Y-105187140D01*
X101397111Y-105245012D01*
X101364858Y-105293766D01*
X101233641Y-105484402D01*
X101099021Y-105679982D01*
X101098443Y-105681324D01*
X101097402Y-105682346D01*
X100983102Y-105849986D01*
X100979880Y-105857563D01*
X100974148Y-105863477D01*
X100895408Y-105985397D01*
X100890592Y-105997558D01*
X100881867Y-106007306D01*
X100848847Y-106063186D01*
X100826056Y-106128160D01*
X100791957Y-106187979D01*
X100784598Y-106246355D01*
X100765125Y-106301871D01*
X100768933Y-106370618D01*
X100760321Y-106438935D01*
X100775861Y-106495680D01*
X100779115Y-106554426D01*
X100802757Y-106603615D01*
X100803836Y-106614905D01*
X100813494Y-106633102D01*
X100827130Y-106682895D01*
X100844910Y-106718455D01*
X100879175Y-106762605D01*
X100888690Y-106782402D01*
X100896395Y-106789298D01*
X100922418Y-106838329D01*
X101001158Y-106934849D01*
X101022440Y-106952419D01*
X101037381Y-106975622D01*
X101184701Y-107128022D01*
X101190862Y-107132291D01*
X101195061Y-107138498D01*
X101414728Y-107355640D01*
X101448944Y-107389856D01*
X101455036Y-107393926D01*
X101459241Y-107399927D01*
X101634501Y-107567567D01*
X101638255Y-107569956D01*
X101640857Y-107573565D01*
X101788177Y-107710725D01*
X101796349Y-107715773D01*
X101802191Y-107723396D01*
X101906331Y-107814836D01*
X101933295Y-107830425D01*
X101954504Y-107853239D01*
X102000224Y-107886259D01*
X102100844Y-107932300D01*
X102199036Y-107983283D01*
X102215345Y-107984692D01*
X102230231Y-107991504D01*
X102340813Y-107995535D01*
X102451039Y-108005061D01*
X102466644Y-108000123D01*
X102483005Y-108000719D01*
X102586714Y-107962124D01*
X102692193Y-107928744D01*
X102742994Y-107900804D01*
X102755580Y-107890220D01*
X102770991Y-107884481D01*
X102890371Y-107810821D01*
X102897994Y-107803731D01*
X102907634Y-107799790D01*
X103072734Y-107690570D01*
X103073571Y-107689741D01*
X103074655Y-107689293D01*
X103272776Y-107557213D01*
X103272778Y-107557211D01*
X103470896Y-107425133D01*
X103471738Y-107424293D01*
X103472833Y-107423836D01*
X103478725Y-107419877D01*
X103496958Y-107425122D01*
X103516334Y-107438414D01*
X103640794Y-107491754D01*
X103706758Y-107505713D01*
X103769024Y-107531581D01*
X103832524Y-107544281D01*
X103855817Y-107544305D01*
X103877906Y-107551694D01*
X103981559Y-107544437D01*
X104085466Y-107544545D01*
X104106995Y-107535654D01*
X104130231Y-107534027D01*
X104223217Y-107487656D01*
X104319256Y-107447993D01*
X104335743Y-107431540D01*
X104356588Y-107421145D01*
X104394307Y-107377746D01*
X104404889Y-107371412D01*
X104430330Y-107337151D01*
X104498300Y-107269323D01*
X104507236Y-107247812D01*
X104522516Y-107230232D01*
X104532676Y-107212452D01*
X104540667Y-107188562D01*
X104555686Y-107168336D01*
X104601406Y-107071815D01*
X104603811Y-107062239D01*
X104609457Y-107054139D01*
X104680577Y-106891579D01*
X104681010Y-106889606D01*
X104682155Y-106887942D01*
X104776135Y-106669501D01*
X104776148Y-106669440D01*
X104776186Y-106669385D01*
X104885406Y-106415385D01*
X104885956Y-106412803D01*
X104887434Y-106410616D01*
X105001734Y-106138836D01*
X105001868Y-106138181D01*
X105002241Y-106137627D01*
X105119081Y-105858227D01*
X105119082Y-105858224D01*
X105230657Y-105591967D01*
X105231488Y-105587876D01*
X105233778Y-105584385D01*
X105330297Y-105345625D01*
X105330385Y-105345161D01*
X105330643Y-105344767D01*
X105409383Y-105149188D01*
X105410722Y-105142089D01*
X105414015Y-105136804D01*
X105786623Y-106034452D01*
X105787064Y-106035111D01*
X105787221Y-106035888D01*
X105857973Y-106205188D01*
X105979388Y-106498608D01*
X105981908Y-106502383D01*
X105982854Y-106506825D01*
X106090754Y-106757755D01*
X106173261Y-106955272D01*
X106178690Y-106963344D01*
X106180896Y-106972816D01*
X106241856Y-107107436D01*
X106242130Y-107107818D01*
X106242237Y-107108276D01*
X106267637Y-107164156D01*
X106304179Y-107215021D01*
X106325318Y-107264508D01*
X106366002Y-107304307D01*
X106399404Y-107354296D01*
X106401944Y-107356836D01*
X106409862Y-107362127D01*
X106415218Y-107369582D01*
X106463062Y-107399254D01*
X106506132Y-107441386D01*
X106562108Y-107463854D01*
X106612258Y-107497363D01*
X106625508Y-107499999D01*
X106630177Y-107502894D01*
X106679512Y-107510978D01*
X106740871Y-107535607D01*
X106781511Y-107543227D01*
X106830904Y-107542683D01*
X106878989Y-107553956D01*
X106956200Y-107541304D01*
X107034438Y-107540443D01*
X107079858Y-107521041D01*
X107128603Y-107513054D01*
X107209883Y-107482574D01*
X107237184Y-107465643D01*
X107268224Y-107457369D01*
X107350654Y-107416853D01*
X107350923Y-107417033D01*
X107541297Y-107544784D01*
X107722427Y-107668053D01*
X107725333Y-107669286D01*
X107727565Y-107671513D01*
X107895204Y-107783273D01*
X107902495Y-107786284D01*
X107908208Y-107791719D01*
X108032668Y-107870459D01*
X108047901Y-107876328D01*
X108060274Y-107886980D01*
X108118694Y-107920000D01*
X108156503Y-107932450D01*
X108189598Y-107954563D01*
X108247030Y-107965987D01*
X108277269Y-107981067D01*
X108311408Y-107983457D01*
X108358947Y-107999111D01*
X108398641Y-107996145D01*
X108437680Y-108003910D01*
X108447840Y-108003910D01*
X108488371Y-107995848D01*
X108529594Y-107998734D01*
X108577239Y-107982797D01*
X108611185Y-107980260D01*
X108640112Y-107965664D01*
X108695922Y-107954563D01*
X108730281Y-107931605D01*
X108769472Y-107918496D01*
X108822812Y-107888016D01*
X108867220Y-107849419D01*
X108918754Y-107821029D01*
X109015274Y-107739749D01*
X109025506Y-107726954D01*
X109039443Y-107718345D01*
X109186763Y-107581185D01*
X109193640Y-107571648D01*
X109203416Y-107565116D01*
X109399985Y-107368547D01*
X109423489Y-107346851D01*
X109434067Y-107332313D01*
X109448867Y-107322106D01*
X109619047Y-107146846D01*
X109621256Y-107143432D01*
X109624573Y-107141084D01*
X109761733Y-106996305D01*
X109765989Y-106989548D01*
X109772391Y-106984778D01*
X109866371Y-106880638D01*
X109884590Y-106850093D01*
X109910639Y-106825876D01*
X109943659Y-106780156D01*
X109986794Y-106685888D01*
X110036565Y-106594968D01*
X110039107Y-106571560D01*
X110048904Y-106550149D01*
X110052681Y-106446551D01*
X110063870Y-106343504D01*
X110057261Y-106320907D01*
X110058119Y-106297375D01*
X110021963Y-106200219D01*
X109992866Y-106100732D01*
X109962386Y-106042312D01*
X109946408Y-106022441D01*
X109937372Y-105998598D01*
X109861172Y-105876678D01*
X109857621Y-105872904D01*
X109855708Y-105868086D01*
X109743948Y-105695366D01*
X109736778Y-105687981D01*
X109732683Y-105678539D01*
X109596196Y-105481390D01*
X109457816Y-105279750D01*
X112423000Y-105279750D01*
X112423000Y-105909392D01*
X112564127Y-106250104D01*
X112824897Y-106510873D01*
X113165608Y-106652000D01*
X113795250Y-106652000D01*
X114027000Y-106420250D01*
X114027000Y-105048000D01*
X114573000Y-105048000D01*
X114573000Y-106420250D01*
X114804750Y-106652000D01*
X115434392Y-106652000D01*
X115530316Y-106612267D01*
X119424948Y-106612267D01*
X119668815Y-107303734D01*
X120158731Y-107849242D01*
X120724856Y-108136471D01*
X121012000Y-107967442D01*
X121012000Y-106318000D01*
X119637789Y-106318000D01*
X119424948Y-106612267D01*
X115530316Y-106612267D01*
X115775103Y-106510873D01*
X116035873Y-106250104D01*
X116177000Y-105909392D01*
X116177000Y-105279750D01*
X115945250Y-105048000D01*
X114573000Y-105048000D01*
X114027000Y-105048000D01*
X114027000Y-105048000D01*
X112654750Y-105048000D01*
X112423000Y-105279750D01*
X109457816Y-105279750D01*
X109437336Y-105249908D01*
X109504619Y-105081263D01*
X109505095Y-105078695D01*
X109506498Y-105076497D01*
X109561612Y-104935119D01*
X109585120Y-104879483D01*
X109630766Y-104869874D01*
X109853701Y-104828226D01*
X110073856Y-104787738D01*
X110076348Y-104786748D01*
X110079024Y-104786765D01*
X110277144Y-104748665D01*
X110277341Y-104748585D01*
X110277558Y-104748586D01*
X110422338Y-104720646D01*
X110424406Y-104719803D01*
X110426636Y-104719801D01*
X110490137Y-104707101D01*
X110556144Y-104679679D01*
X110583241Y-104676263D01*
X110633532Y-104647595D01*
X110722595Y-104610813D01*
X110737835Y-104600653D01*
X110767086Y-104571463D01*
X110802987Y-104550998D01*
X110855850Y-104482885D01*
X110916879Y-104421983D01*
X110932733Y-104383822D01*
X110958070Y-104351175D01*
X110973310Y-104320695D01*
X111001068Y-104219335D01*
X111013921Y-104188396D01*
X111013932Y-104177607D01*
X111037785Y-104102369D01*
X111045405Y-104033789D01*
X111043490Y-104011499D01*
X111048784Y-103989761D01*
X111053864Y-103870381D01*
X111052390Y-103860872D01*
X111054392Y-103851463D01*
X111056932Y-103660963D01*
X111056131Y-103656637D01*
X111056990Y-103652320D01*
X111056990Y-103640608D01*
X112423000Y-103640608D01*
X112423000Y-104270250D01*
X112654750Y-104502000D01*
X114027000Y-104502000D01*
X114027000Y-103129750D01*
X114573000Y-103129750D01*
X114573000Y-104502000D01*
X115945250Y-104502000D01*
X116177000Y-104270250D01*
X116177000Y-103640608D01*
X116035873Y-103299896D01*
X115775103Y-103039127D01*
X115434392Y-102898000D01*
X114804750Y-102898000D01*
X114573000Y-103129750D01*
X114027000Y-103129750D01*
X114027000Y-103129750D01*
X113795250Y-102898000D01*
X113165608Y-102898000D01*
X112824897Y-103039127D01*
X112564127Y-103299896D01*
X112423000Y-103640608D01*
X111056990Y-103640608D01*
X111056990Y-103344980D01*
X111056364Y-103341835D01*
X111056959Y-103338686D01*
X111054419Y-103077066D01*
X111053448Y-103072421D01*
X111054262Y-103067743D01*
X111049182Y-102856924D01*
X111046919Y-102846826D01*
X111048372Y-102836581D01*
X111040752Y-102699420D01*
X111033693Y-102671987D01*
X111035235Y-102643701D01*
X111027615Y-102590361D01*
X111000641Y-102513680D01*
X110984783Y-102433958D01*
X110959049Y-102395444D01*
X110943679Y-102351751D01*
X110889417Y-102291232D01*
X110844256Y-102223644D01*
X110805743Y-102197911D01*
X110774822Y-102163424D01*
X110701527Y-102128275D01*
X110633942Y-102083117D01*
X110588514Y-102074081D01*
X110546748Y-102054052D01*
X110541955Y-102053791D01*
X110540548Y-102053126D01*
X110479589Y-102037886D01*
X110469661Y-102037403D01*
X110460549Y-102033430D01*
X110320850Y-102002950D01*
X110311894Y-102002785D01*
X110303589Y-101999429D01*
X110103974Y-101961527D01*
X109868966Y-101916042D01*
X109860385Y-101916086D01*
X109855935Y-101914404D01*
X109853726Y-101913502D01*
X109853366Y-101913432D01*
X109852355Y-101913050D01*
X109845412Y-101911893D01*
X109621073Y-101868472D01*
X109545788Y-101853029D01*
X109488629Y-101723962D01*
X109415991Y-101547209D01*
X109409826Y-101532140D01*
X109460504Y-101456687D01*
X109597298Y-101254030D01*
X109598034Y-101252277D01*
X109599373Y-101250935D01*
X109606360Y-101240455D01*
X109740303Y-101046981D01*
X109744885Y-101036416D01*
X109752875Y-101028125D01*
X109862095Y-100857946D01*
X109864235Y-100852496D01*
X109868221Y-100848211D01*
X109941881Y-100728831D01*
X109952085Y-100701432D01*
X109970010Y-100678335D01*
X109997950Y-100622455D01*
X110004102Y-100599989D01*
X110017043Y-100580622D01*
X110034064Y-100495050D01*
X110059874Y-100421679D01*
X110058722Y-100400540D01*
X110064759Y-100378495D01*
X110061846Y-100355385D01*
X110066390Y-100332540D01*
X110066390Y-100330000D01*
X110050532Y-100250276D01*
X110046108Y-100169112D01*
X110035602Y-100147204D01*
X110033123Y-100127539D01*
X110022363Y-100108663D01*
X110017043Y-100081918D01*
X109971885Y-100014333D01*
X109936736Y-99941038D01*
X109891016Y-99880078D01*
X109868008Y-99859449D01*
X109852081Y-99832966D01*
X109750481Y-99721206D01*
X109744660Y-99716903D01*
X109740795Y-99710784D01*
X109596015Y-99558384D01*
X109591045Y-99554875D01*
X109587702Y-99549794D01*
X109412442Y-99371993D01*
X109404141Y-99366360D01*
X109398375Y-99358150D01*
X109344838Y-99307047D01*
X109151625Y-99118853D01*
X109144429Y-99114180D01*
X109139382Y-99107233D01*
X109004762Y-98982773D01*
X108982691Y-98969246D01*
X108965876Y-98949569D01*
X108882056Y-98883529D01*
X108793214Y-98838294D01*
X108708483Y-98785746D01*
X108667843Y-98770506D01*
X108627214Y-98763849D01*
X108605201Y-98753115D01*
X108540411Y-98749159D01*
X108440220Y-98729230D01*
X108429256Y-98731411D01*
X108418229Y-98729604D01*
X108377293Y-98739201D01*
X108352728Y-98737701D01*
X108291354Y-98758842D01*
X108192138Y-98778577D01*
X108182846Y-98784786D01*
X108171964Y-98787337D01*
X108138193Y-98811599D01*
X108113576Y-98820078D01*
X108052616Y-98855638D01*
X108042449Y-98864635D01*
X108029808Y-98869581D01*
X107902808Y-98950861D01*
X107895127Y-98958245D01*
X107885335Y-98962446D01*
X107717348Y-99077780D01*
X107517742Y-99212515D01*
X107504045Y-99221647D01*
X107499949Y-99225734D01*
X107494639Y-99228037D01*
X107301172Y-99361975D01*
X107237393Y-99404494D01*
X107159054Y-99373840D01*
X106982193Y-99303580D01*
X106939415Y-99285431D01*
X106919741Y-99185834D01*
X106919695Y-99185722D01*
X106919695Y-99185598D01*
X106872068Y-98944956D01*
X106865428Y-98909543D01*
X106822622Y-98672851D01*
X106820991Y-98668712D01*
X106821009Y-98664263D01*
X106782909Y-98468684D01*
X106781838Y-98466069D01*
X106781825Y-98463243D01*
X106753885Y-98326082D01*
X106745585Y-98306302D01*
X106744087Y-98284909D01*
X106728847Y-98229029D01*
X106686655Y-98144424D01*
X106653152Y-98056018D01*
X106630632Y-98032083D01*
X106615965Y-98002672D01*
X106544607Y-97940653D01*
X106479823Y-97871798D01*
X106449857Y-97858303D01*
X106425052Y-97836744D01*
X106364998Y-97816656D01*
X106356933Y-97810472D01*
X106324201Y-97801713D01*
X106249190Y-97767931D01*
X106216170Y-97760311D01*
X106194583Y-97759654D01*
X106185173Y-97756506D01*
X106161472Y-97758165D01*
X106112589Y-97745084D01*
X105995749Y-97737464D01*
X105983813Y-97739039D01*
X105972075Y-97736354D01*
X105794274Y-97731274D01*
X105788808Y-97732200D01*
X105783386Y-97731055D01*
X105567486Y-97728515D01*
X105560031Y-97729907D01*
X105552576Y-97728511D01*
X105326517Y-97731051D01*
X105322722Y-97731850D01*
X105318901Y-97731181D01*
X105097921Y-97736261D01*
X105096618Y-97736551D01*
X105095306Y-97736327D01*
X104907346Y-97741407D01*
X104891851Y-97744927D01*
X104876073Y-97743008D01*
X104741453Y-97753168D01*
X104708487Y-97762351D01*
X104674274Y-97761787D01*
X104618394Y-97771947D01*
X104575316Y-97788964D01*
X104529359Y-97794757D01*
X104458739Y-97835013D01*
X104450949Y-97838091D01*
X104411830Y-97851049D01*
X104406512Y-97855644D01*
X104383141Y-97864876D01*
X104349853Y-97897083D01*
X104309613Y-97920022D01*
X104264036Y-97978748D01*
X104220435Y-98016420D01*
X104214688Y-98027861D01*
X104201358Y-98040758D01*
X104182929Y-98083252D01*
X104154530Y-98119844D01*
X104151990Y-98124925D01*
X104135285Y-98185927D01*
X104106892Y-98242447D01*
X104086573Y-98316106D01*
X104085322Y-98333257D01*
X104078416Y-98349007D01*
X104045396Y-98498867D01*
X104045328Y-98502166D01*
X104044032Y-98505205D01*
X104000853Y-98710944D01*
X104000772Y-98718656D01*
X103997911Y-98725822D01*
X103955005Y-98957037D01*
X103948383Y-98985181D01*
X103947808Y-99001713D01*
X103941717Y-99017091D01*
X103899944Y-99245615D01*
X103891309Y-99287169D01*
X103735471Y-99349105D01*
X103733533Y-99350360D01*
X103731264Y-99350794D01*
X103596305Y-99405527D01*
X103325159Y-99220264D01*
X103277318Y-99186777D01*
X103272192Y-99184522D01*
X103268249Y-99180542D01*
X103065049Y-99043382D01*
X103062218Y-99042194D01*
X103060034Y-99040030D01*
X102895778Y-98931368D01*
X102782555Y-98855887D01*
X102751228Y-98842949D01*
X102724889Y-98821614D01*
X102676629Y-98796214D01*
X102654204Y-98789568D01*
X102645909Y-98783435D01*
X102638814Y-98781669D01*
X102622782Y-98770957D01*
X102527376Y-98751979D01*
X102434114Y-98724339D01*
X102416077Y-98726232D01*
X102400455Y-98722344D01*
X102387871Y-98724230D01*
X102374700Y-98721610D01*
X102369620Y-98721610D01*
X102268538Y-98741717D01*
X102182553Y-98750741D01*
X102171707Y-98756628D01*
X102150307Y-98759835D01*
X102136892Y-98767903D01*
X102121538Y-98770957D01*
X102028958Y-98832817D01*
X102006976Y-98846037D01*
X101960245Y-98871401D01*
X101955915Y-98876746D01*
X101933547Y-98890199D01*
X101877666Y-98940999D01*
X101873004Y-98947305D01*
X101866385Y-98951503D01*
X101757165Y-99055643D01*
X101755862Y-99057496D01*
X101753958Y-99058722D01*
X101601558Y-99206041D01*
X101599723Y-99208689D01*
X101597034Y-99210458D01*
X101419233Y-99385718D01*
X101416101Y-99390333D01*
X101411495Y-99393476D01*
X101282338Y-99525166D01*
X101127732Y-99682306D01*
X101124679Y-99686957D01*
X101120131Y-99690163D01*
X101021071Y-99794303D01*
X101003674Y-99821804D01*
X100979066Y-99843101D01*
X100925727Y-99911681D01*
X100894735Y-99973503D01*
X100886658Y-99981318D01*
X100879034Y-99998898D01*
X100843523Y-100049841D01*
X100825743Y-100090481D01*
X100817682Y-100127206D01*
X100812371Y-100137801D01*
X100811090Y-100155569D01*
X100786019Y-100213378D01*
X100784983Y-100276187D01*
X100771516Y-100337543D01*
X100782917Y-100401416D01*
X100781847Y-100466286D01*
X100786927Y-100494226D01*
X100809835Y-100552219D01*
X100815963Y-100586549D01*
X100834509Y-100615526D01*
X100870989Y-100715326D01*
X100906549Y-100773746D01*
X100915729Y-100783736D01*
X100920907Y-100796275D01*
X101002187Y-100918196D01*
X101005370Y-100921386D01*
X101007146Y-100925525D01*
X101123986Y-101095705D01*
X101124905Y-101096601D01*
X101125417Y-101097782D01*
X101259348Y-101291236D01*
X101365675Y-101450727D01*
X101422365Y-101538123D01*
X101342586Y-101726691D01*
X101285892Y-101855540D01*
X101156511Y-101879568D01*
X101153505Y-101880768D01*
X101150267Y-101880759D01*
X100904151Y-101928967D01*
X100669368Y-101974409D01*
X100301067Y-102045529D01*
X100243069Y-102069173D01*
X100181527Y-102080816D01*
X100127091Y-102116455D01*
X100066842Y-102141017D01*
X100022307Y-102185056D01*
X99969904Y-102219364D01*
X99933250Y-102273122D01*
X99886986Y-102318871D01*
X99862694Y-102376601D01*
X99827410Y-102428350D01*
X99814118Y-102492043D01*
X99788884Y-102552014D01*
X99788534Y-102614647D01*
X99775739Y-102675959D01*
X99763039Y-104029779D01*
X98552000Y-104029779D01*
X98552000Y-95119750D01*
X99438000Y-95119750D01*
X99438000Y-96799392D01*
X99579127Y-97140103D01*
X99839896Y-97400873D01*
X100180608Y-97542000D01*
X101610250Y-97542000D01*
X101842000Y-97310250D01*
X101842000Y-94888000D01*
X102388000Y-94888000D01*
X102388000Y-97310250D01*
X102619750Y-97542000D01*
X104049392Y-97542000D01*
X104390104Y-97400873D01*
X104650873Y-97140103D01*
X104792000Y-96799392D01*
X104792000Y-95119750D01*
X104560250Y-94888000D01*
X102388000Y-94888000D01*
X101842000Y-94888000D01*
X101842000Y-94888000D01*
X99669750Y-94888000D01*
X99438000Y-95119750D01*
X98552000Y-95119750D01*
X98552000Y-92430608D01*
X99438000Y-92430608D01*
X99438000Y-94110250D01*
X99669750Y-94342000D01*
X101842000Y-94342000D01*
X101842000Y-91919750D01*
X102388000Y-91919750D01*
X102388000Y-94342000D01*
X104560250Y-94342000D01*
X104792000Y-94110250D01*
X104792000Y-92865000D01*
X105673757Y-92865000D01*
X105673757Y-96365000D01*
X105727541Y-96642202D01*
X105887583Y-96885838D01*
X106129191Y-97048926D01*
X106415000Y-97106243D01*
X110415000Y-97106243D01*
X110692202Y-97052459D01*
X110935838Y-96892417D01*
X111098926Y-96650809D01*
X111156243Y-96365000D01*
X111156243Y-95843785D01*
X111597614Y-95755991D01*
X111795000Y-95624102D01*
X111795000Y-97155000D01*
X111889009Y-97627614D01*
X112156723Y-98028277D01*
X112915732Y-98787286D01*
X112879138Y-98823816D01*
X112623292Y-99439961D01*
X112622710Y-100107112D01*
X112877480Y-100723703D01*
X113348816Y-101195862D01*
X113964961Y-101451708D01*
X114632112Y-101452290D01*
X115248703Y-101197520D01*
X115605000Y-100841844D01*
X115605000Y-101600000D01*
X115699009Y-102072614D01*
X115966723Y-102473277D01*
X117236723Y-103743277D01*
X117637386Y-104010991D01*
X118110000Y-104105000D01*
X120426308Y-104105000D01*
X120158731Y-104240758D01*
X119668815Y-104786266D01*
X119424948Y-105477733D01*
X119637789Y-105772000D01*
X121012000Y-105772000D01*
X121012000Y-105752000D01*
X121558000Y-105752000D01*
X121558000Y-105772000D01*
X121578000Y-105772000D01*
X121578000Y-106318000D01*
X121558000Y-106318000D01*
X121558000Y-107967442D01*
X121845144Y-108136471D01*
X122411269Y-107849242D01*
X122653729Y-107579270D01*
X123183240Y-107933078D01*
X123825000Y-108060732D01*
X124466760Y-107933078D01*
X125010818Y-107569550D01*
X125095000Y-107443563D01*
X125179182Y-107569550D01*
X125723240Y-107933078D01*
X126365000Y-108060732D01*
X127006760Y-107933078D01*
X127352740Y-107701902D01*
X127427583Y-107815838D01*
X127669191Y-107978926D01*
X127955000Y-108036243D01*
X129855000Y-108036243D01*
X130132202Y-107982459D01*
X130375838Y-107822417D01*
X130538926Y-107580809D01*
X130596243Y-107295000D01*
X130596243Y-107280000D01*
X131445000Y-107280000D01*
X131917614Y-107185991D01*
X132318277Y-106918277D01*
X138033277Y-101203277D01*
X138300991Y-100802614D01*
X138395001Y-100330000D01*
X138395000Y-100329995D01*
X138395000Y-91376651D01*
X138622794Y-91149255D01*
X138886190Y-90514927D01*
X138886789Y-89828087D01*
X138624500Y-89193300D01*
X138139255Y-88707206D01*
X137504927Y-88443810D01*
X136818087Y-88443211D01*
X136183300Y-88705500D01*
X135697206Y-89190745D01*
X135433810Y-89825073D01*
X135433211Y-90511913D01*
X135695500Y-91146700D01*
X135925000Y-91376602D01*
X135925000Y-99818446D01*
X130933446Y-104810000D01*
X130596243Y-104810000D01*
X130596243Y-104795000D01*
X130542459Y-104517798D01*
X130382417Y-104274162D01*
X130140809Y-104111074D01*
X129855000Y-104053757D01*
X127955000Y-104053757D01*
X127677798Y-104107541D01*
X127600000Y-104158646D01*
X127600000Y-103406332D01*
X127770608Y-103477000D01*
X128400250Y-103477000D01*
X128632000Y-103245250D01*
X128632000Y-101873000D01*
X129178000Y-101873000D01*
X129178000Y-103245250D01*
X129409750Y-103477000D01*
X130039392Y-103477000D01*
X130380104Y-103335873D01*
X130640873Y-103075103D01*
X130782000Y-102734392D01*
X130782000Y-102104750D01*
X130550250Y-101873000D01*
X129178000Y-101873000D01*
X128632000Y-101873000D01*
X128632000Y-101873000D01*
X128612000Y-101873000D01*
X128612000Y-101327000D01*
X128632000Y-101327000D01*
X128632000Y-101307000D01*
X129178000Y-101307000D01*
X129178000Y-101327000D01*
X130550250Y-101327000D01*
X130782000Y-101095250D01*
X130782000Y-100465608D01*
X130711332Y-100295000D01*
X132213278Y-100295000D01*
X132398816Y-100480862D01*
X133014961Y-100736708D01*
X133682112Y-100737290D01*
X134298703Y-100482520D01*
X134770862Y-100011184D01*
X135026708Y-99395039D01*
X135027290Y-98727888D01*
X134772520Y-98111297D01*
X134448143Y-97786353D01*
X134568672Y-97705818D01*
X134932200Y-97161760D01*
X135059854Y-96520000D01*
X134932200Y-95878240D01*
X134568672Y-95334182D01*
X134024614Y-94970654D01*
X133382854Y-94843000D01*
X133317146Y-94843000D01*
X132675386Y-94970654D01*
X132204934Y-95285000D01*
X130041722Y-95285000D01*
X130006636Y-95249853D01*
X130325862Y-94931184D01*
X130581708Y-94315039D01*
X130582290Y-93647888D01*
X130327520Y-93031297D01*
X130140000Y-92843450D01*
X130140000Y-92075000D01*
X130045991Y-91602386D01*
X129778277Y-91201723D01*
X128726508Y-90149954D01*
X128726789Y-89828087D01*
X128464500Y-89193300D01*
X128235000Y-88963398D01*
X128235000Y-87566651D01*
X128462794Y-87339255D01*
X128726190Y-86704927D01*
X128726789Y-86018087D01*
X128464500Y-85383300D01*
X127979255Y-84897206D01*
X127344927Y-84633810D01*
X126658087Y-84633211D01*
X126023300Y-84895500D01*
X125537206Y-85380745D01*
X125273810Y-86015073D01*
X125273211Y-86701913D01*
X125535500Y-87336700D01*
X125765000Y-87566602D01*
X125765000Y-88963349D01*
X125537206Y-89190745D01*
X125273810Y-89825073D01*
X125273211Y-90511913D01*
X125535500Y-91146700D01*
X126020745Y-91632794D01*
X126655073Y-91896190D01*
X126979919Y-91896473D01*
X127670000Y-92586554D01*
X127670000Y-92843278D01*
X127634853Y-92878364D01*
X127316184Y-92559138D01*
X126700039Y-92303292D01*
X126032888Y-92302710D01*
X125416297Y-92557480D01*
X125228450Y-92745000D01*
X123825000Y-92745000D01*
X123790000Y-92751962D01*
X123790000Y-90671722D01*
X123975862Y-90486184D01*
X124231708Y-89870039D01*
X124232290Y-89202888D01*
X123977520Y-88586297D01*
X123790000Y-88398450D01*
X123790000Y-83916640D01*
X126019440Y-83916640D01*
X126107478Y-84242906D01*
X126823264Y-84455595D01*
X127565957Y-84378174D01*
X127892522Y-84242906D01*
X127980560Y-83916640D01*
X127000000Y-82936080D01*
X126019440Y-83916640D01*
X123790000Y-83916640D01*
X123790000Y-83185000D01*
X123695991Y-82712386D01*
X123469398Y-82373264D01*
X125094405Y-82373264D01*
X125171826Y-83115957D01*
X125307094Y-83442522D01*
X125633360Y-83530560D01*
X126613920Y-82550000D01*
X127386080Y-82550000D01*
X128366640Y-83530560D01*
X128692906Y-83442522D01*
X128856514Y-82891913D01*
X135433211Y-82891913D01*
X135695500Y-83526700D01*
X135925000Y-83756602D01*
X135925000Y-85153349D01*
X135697206Y-85380745D01*
X135433810Y-86015073D01*
X135433211Y-86701913D01*
X135695500Y-87336700D01*
X136180745Y-87822794D01*
X136815073Y-88086190D01*
X137501913Y-88086789D01*
X138136700Y-87824500D01*
X138622794Y-87339255D01*
X138886190Y-86704927D01*
X138886789Y-86018087D01*
X138624500Y-85383300D01*
X138395000Y-85153398D01*
X138395000Y-83756651D01*
X138622794Y-83529255D01*
X138886190Y-82894927D01*
X138886789Y-82208087D01*
X138624500Y-81573300D01*
X138139255Y-81087206D01*
X137504927Y-80823810D01*
X136818087Y-80823211D01*
X136183300Y-81085500D01*
X135697206Y-81570745D01*
X135433810Y-82205073D01*
X135433211Y-82891913D01*
X128856514Y-82891913D01*
X128905595Y-82726736D01*
X128828174Y-81984043D01*
X128692906Y-81657478D01*
X128366640Y-81569440D01*
X127386080Y-82550000D01*
X126613920Y-82550000D01*
X126613920Y-82550000D01*
X125633360Y-81569440D01*
X125307094Y-81657478D01*
X125094405Y-82373264D01*
X123469398Y-82373264D01*
X123428277Y-82311723D01*
X122793277Y-81676723D01*
X122392614Y-81409009D01*
X121920000Y-81315000D01*
X120580307Y-81315000D01*
X120448897Y-81183360D01*
X126019440Y-81183360D01*
X127000000Y-82163920D01*
X127980560Y-81183360D01*
X127892522Y-80857094D01*
X127176736Y-80644405D01*
X126434043Y-80721826D01*
X126107478Y-80857094D01*
X126019440Y-81183360D01*
X120448897Y-81183360D01*
X120356708Y-81091011D01*
X119724030Y-80828300D01*
X119038976Y-80827702D01*
X118405840Y-81089308D01*
X117921011Y-81573292D01*
X117658300Y-82205970D01*
X117657702Y-82891024D01*
X117919308Y-83524160D01*
X118403292Y-84008989D01*
X119035970Y-84271700D01*
X119721024Y-84272298D01*
X120354160Y-84010692D01*
X120580246Y-83785000D01*
X121320000Y-83785000D01*
X121320000Y-88398278D01*
X121134138Y-88583816D01*
X120878292Y-89199961D01*
X120877710Y-89867112D01*
X121132480Y-90483703D01*
X121320000Y-90671550D01*
X121320000Y-94738446D01*
X120138446Y-95920000D01*
X116845000Y-95920000D01*
X116845000Y-95802901D01*
X116975608Y-95857000D01*
X117605250Y-95857000D01*
X117837000Y-95625250D01*
X117837000Y-94253000D01*
X118383000Y-94253000D01*
X118383000Y-95625250D01*
X118614750Y-95857000D01*
X119244392Y-95857000D01*
X119585104Y-95715873D01*
X119845873Y-95455103D01*
X119987000Y-95114392D01*
X119987000Y-94484750D01*
X119755250Y-94253000D01*
X118383000Y-94253000D01*
X117837000Y-94253000D01*
X117837000Y-94253000D01*
X117817000Y-94253000D01*
X117817000Y-93707000D01*
X117837000Y-93707000D01*
X117837000Y-92334750D01*
X117727250Y-92225000D01*
X117837000Y-92115250D01*
X117837000Y-90443000D01*
X118383000Y-90443000D01*
X118383000Y-92115250D01*
X118492750Y-92225000D01*
X118383000Y-92334750D01*
X118383000Y-93707000D01*
X119755250Y-93707000D01*
X119987000Y-93475250D01*
X119987000Y-92845608D01*
X119845873Y-92504897D01*
X119585104Y-92244127D01*
X119538927Y-92225000D01*
X119585103Y-92205873D01*
X119845873Y-91945104D01*
X119987000Y-91604392D01*
X119987000Y-90674750D01*
X119755250Y-90443000D01*
X118383000Y-90443000D01*
X117837000Y-90443000D01*
X117837000Y-90443000D01*
X117817000Y-90443000D01*
X117817000Y-89897000D01*
X117837000Y-89897000D01*
X117837000Y-88224750D01*
X118383000Y-88224750D01*
X118383000Y-89897000D01*
X119755250Y-89897000D01*
X119987000Y-89665250D01*
X119987000Y-88735608D01*
X119845873Y-88394896D01*
X119585103Y-88134127D01*
X119244392Y-87993000D01*
X118614750Y-87993000D01*
X118383000Y-88224750D01*
X117837000Y-88224750D01*
X117837000Y-88224750D01*
X117605250Y-87993000D01*
X116975608Y-87993000D01*
X116634897Y-88134127D01*
X116376815Y-88392208D01*
X116211760Y-88281922D01*
X115570000Y-88154268D01*
X114928240Y-88281922D01*
X114384182Y-88645450D01*
X114300000Y-88771437D01*
X114215818Y-88645450D01*
X113671760Y-88281922D01*
X113030000Y-88154268D01*
X112388240Y-88281922D01*
X111844182Y-88645450D01*
X111480654Y-89189508D01*
X111353000Y-89831268D01*
X111353000Y-90508732D01*
X111480654Y-91150492D01*
X111795000Y-91620944D01*
X111795000Y-92198446D01*
X111151726Y-92841720D01*
X111102459Y-92587798D01*
X110942417Y-92344162D01*
X110700809Y-92181074D01*
X110415000Y-92123757D01*
X108369776Y-92123757D01*
X108442000Y-91949392D01*
X108442000Y-90519750D01*
X108210250Y-90288000D01*
X105788000Y-90288000D01*
X105788000Y-92460250D01*
X105801946Y-92474196D01*
X105731074Y-92579191D01*
X105673757Y-92865000D01*
X104792000Y-92865000D01*
X104792000Y-92692000D01*
X105010250Y-92692000D01*
X105242000Y-92460250D01*
X105242000Y-90288000D01*
X102819750Y-90288000D01*
X102588000Y-90519750D01*
X102588000Y-91719750D01*
X102388000Y-91919750D01*
X101842000Y-91919750D01*
X101842000Y-91919750D01*
X101610250Y-91688000D01*
X100180608Y-91688000D01*
X99839896Y-91829127D01*
X99579127Y-92089897D01*
X99438000Y-92430608D01*
X98552000Y-92430608D01*
X98552000Y-88080608D01*
X102588000Y-88080608D01*
X102588000Y-89510250D01*
X102819750Y-89742000D01*
X105242000Y-89742000D01*
X105242000Y-87569750D01*
X105788000Y-87569750D01*
X105788000Y-89742000D01*
X108210250Y-89742000D01*
X108442000Y-89510250D01*
X108442000Y-88080608D01*
X108300873Y-87739897D01*
X108040104Y-87479127D01*
X107699392Y-87338000D01*
X106019750Y-87338000D01*
X105788000Y-87569750D01*
X105242000Y-87569750D01*
X105242000Y-87569750D01*
X105010250Y-87338000D01*
X103330608Y-87338000D01*
X102989896Y-87479127D01*
X102729127Y-87739897D01*
X102588000Y-88080608D01*
X98552000Y-88080608D01*
X98552000Y-85594750D01*
X100943000Y-85594750D01*
X100943000Y-86224392D01*
X101084127Y-86565103D01*
X101344896Y-86825873D01*
X101685608Y-86967000D01*
X102365250Y-86967000D01*
X102597000Y-86735250D01*
X102597000Y-85363000D01*
X103143000Y-85363000D01*
X103143000Y-86735250D01*
X103374750Y-86967000D01*
X104054392Y-86967000D01*
X104395104Y-86825873D01*
X104655873Y-86565103D01*
X104797000Y-86224392D01*
X104797000Y-85594750D01*
X104565250Y-85363000D01*
X103143000Y-85363000D01*
X102597000Y-85363000D01*
X102597000Y-85363000D01*
X101174750Y-85363000D01*
X100943000Y-85594750D01*
X98552000Y-85594750D01*
X98552000Y-83955608D01*
X100943000Y-83955608D01*
X100943000Y-84585250D01*
X101174750Y-84817000D01*
X102597000Y-84817000D01*
X102597000Y-84797000D01*
X103143000Y-84797000D01*
X103143000Y-84817000D01*
X104565250Y-84817000D01*
X104797000Y-84585250D01*
X104797000Y-83955608D01*
X104726332Y-83785000D01*
X108083278Y-83785000D01*
X108268816Y-83970862D01*
X108884961Y-84226708D01*
X109552112Y-84227290D01*
X110168703Y-83972520D01*
X110640862Y-83501184D01*
X110896708Y-82885039D01*
X110897290Y-82217888D01*
X110642520Y-81601297D01*
X110171184Y-81129138D01*
X109555039Y-80873292D01*
X108887888Y-80872710D01*
X108271297Y-81127480D01*
X108083450Y-81315000D01*
X104006722Y-81315000D01*
X103821184Y-81129138D01*
X103205039Y-80873292D01*
X102537888Y-80872710D01*
X101921297Y-81127480D01*
X101449138Y-81598816D01*
X101193292Y-82214961D01*
X101192710Y-82882112D01*
X101381481Y-83338973D01*
X101344896Y-83354127D01*
X101084127Y-83614897D01*
X100943000Y-83955608D01*
X98552000Y-83955608D01*
X98552000Y-80137000D01*
X139573000Y-80137000D01*
X139573000Y-108458000D01*
M02*
