M48
;DRILL file {KiCad (2015-07-07 BZR 5906)-product} date Thu 10 Sep 2015 10:57:13 CEST
;FORMAT={-:-/ absolute / metric / decimal}
FMAT,2
METRIC,TZ
T1C0.800
T2C2.500
%
G90
G05
M71
T1
X102.87Y-82.55
X102.87Y-85.09
X109.22Y-82.55
X113.03Y-90.17
X114.3Y-99.775
X114.3Y-104.775
X115.57Y-90.17
X115.61Y-93.98
X118.11Y-90.17
X118.11Y-93.98
X119.38Y-82.55
X121.285Y-106.045
X122.555Y-89.535
X122.555Y-99.695
X123.825Y-106.045
X126.365Y-93.98
X126.365Y-96.52
X126.365Y-99.06
X126.365Y-101.6
X126.365Y-106.045
X127.Y-82.55
X127.Y-86.36
X127.Y-90.17
X128.905Y-93.98
X128.905Y-96.52
X128.905Y-99.06
X128.905Y-101.6
X128.905Y-106.045
X133.35Y-96.52
X133.35Y-99.06
X137.16Y-82.55
X137.16Y-86.36
X137.16Y-90.17
T2
X102.115Y-94.615
X105.515Y-90.015
X108.415Y-94.615
T0
M30
